<?xml version="1.0" standalone="no"?>
<!DOCTYPE svg PUBLIC "-//W3C//DTD SVG 20010904//EN"
 "http://www.w3.org/TR/2001/REC-SVG-20010904/DTD/svg10.dtd">
<svg version="1.0" xmlns="http://www.w3.org/2000/svg"
 width="200.000000pt" height="200.000000pt" viewBox="0 0 200.000000 200.000000"
 preserveAspectRatio="xMidYMid meet">
<metadata>
Created by potrace 1.10, written by Peter Selinger 2001-2011
</metadata>
<g transform="translate(0.000000,200.000000) scale(0.100000,-0.100000)"
fill="#fe5e5e" stroke="none">
<path d="M978 1385 c-152 -197 -275 -362 -272 -364 9 -10 79 74 292 353 20 26
51 65 67 86 17 20 57 72 90 114 33 43 61 73 63 67 2 -5 -42 -170 -97 -366 -56
-195 -101 -358 -101 -362 0 -4 4 -3 9 2 13 14 233 795 229 814 -2 10 -120
-136 -280 -344z"/>
<path d="M280 1577 c0 -14 27 -200 60 -414 34 -213 63 -407 67 -431 3 -23 9
-45 14 -47 8 -6 187 216 195 242 7 22 13 28 -106 -116 l-85 -104 -7 49 c-3 27
-18 123 -33 214 -47 300 -65 422 -65 449 l0 26 16 -30 c9 -16 49 -104 91 -195
77 -171 101 -215 110 -207 4 4 -241 572 -254 586 -1 2 -3 -7 -3 -22z"/>
<path d="M601 1415 c-1 -5 -10 -91 -21 -189 -11 -99 -20 -189 -19 -200 1 -35
17 30 30 119 6 44 13 87 15 95 8 23 18 -1 38 -90 19 -80 36 -133 43 -127 5 5
-65 357 -77 382 -5 11 -9 16 -9 10z"/>
<path d="M1203 962 c-84 -25 -153 -50 -153 -55 0 -13 59 0 174 38 55 19 102
33 103 31 2 -1 -51 -61 -117 -131 -66 -71 -120 -134 -119 -140 0 -15 276 275
276 291 0 17 17 21 -164 -34z"/>
<path d="M517 705 c-45 -102 -64 -155 -55 -155 3 0 83 34 179 76 191 83 328
149 344 166 12 14 31 21 -260 -105 -132 -58 -242 -103 -244 -101 -3 2 4 17 15
32 11 15 28 47 38 72 10 25 23 56 29 70 14 35 17 50 8 50 -5 0 -29 -47 -54
-105z"/>
<path d="M1135 692 c6 -7 107 -14 255 -18 135 -3 246 -7 247 -8 2 -1 -136 -35
-305 -76 -320 -76 -344 -83 -321 -92 8 -3 95 14 194 38 99 23 253 60 343 80
122 29 162 42 162 54 0 11 -12 15 -52 15 -29 0 -161 4 -293 9 -167 5 -237 5
-230 -2z"/>
<path d="M649 575 c-113 -72 -161 -110 -147 -117 14 -6 342 -22 373 -17 22 3
31 7 20 8 -31 2 -359 31 -365 31 -3 1 13 10 35 22 90 46 247 158 223 158 -3 0
-65 -38 -139 -85z"/>
<path d="M1061 454 c10 -12 220 -119 359 -183 23 -10 21 -11 -15 -6 -22 2
-182 16 -355 31 -310 27 -316 28 -370 58 l-55 31 48 7 c27 3 52 10 55 14 4 4
-11 4 -33 1 -22 -4 -51 -7 -65 -7 -17 0 -26 -6 -27 -17 -1 -13 19 -28 65 -50
66 -32 72 -33 402 -63 184 -16 353 -33 375 -36 37 -6 39 -5 25 12 -9 10 -10
15 -2 10 6 -4 12 -5 12 -2 0 5 -415 216 -426 216 -3 0 -1 -7 7 -16z"/>
</g>
</svg>
