<?xml version="1.0" standalone="no"?>
<!DOCTYPE svg PUBLIC "-//W3C//DTD SVG 20010904//EN"
 "http://www.w3.org/TR/2001/REC-SVG-20010904/DTD/svg10.dtd">
<svg version="1.0" xmlns="http://www.w3.org/2000/svg"
 width="200.000000pt" height="200.000000pt" viewBox="0 0 200.000000 200.000000"
 preserveAspectRatio="xMidYMid meet">
<metadata>
Created by potrace 1.10, written by Peter Selinger 2001-2011
</metadata>
<g transform="translate(0.000000,200.000000) scale(0.100000,-0.100000)"
fill="#5ebdff" stroke="none">
<path d="M795 1740 c-220 -25 -518 -95 -543 -127 -6 -9 -9 -26 -6 -36 3 -11
55 -256 115 -545 59 -289 114 -531 121 -537 7 -7 126 -70 265 -141 l252 -129
253 129 c139 71 259 134 265 140 7 7 51 198 98 426 47 228 98 474 114 547 15
73 25 137 21 143 -16 25 -246 87 -430 115 -128 19 -416 27 -525 15z m480 -26
c164 -23 172 -24 274 -50 127 -33 194 -63 188 -83 -2 -9 -52 -252 -112 -541
l-108 -525 -259 -132 -259 -132 -257 131 c-141 72 -258 132 -258 132 -1 1 -52
244 -113 540 -104 504 -110 541 -94 550 47 28 165 62 313 91 42 9 252 34 310
38 82 6 251 -3 375 -19z"/>
<path d="M910 1684 c-105 -10 -268 -35 -377 -59 -174 -39 -193 -45 -193 -58 0
-10 23 -7 93 10 246 63 350 77 567 77 217 0 321 -14 568 -77 69 -17 92 -20 92
-10 0 14 -21 20 -190 57 -206 45 -442 70 -560 60z"/>
<path d="M920 1573 c-176 -7 -445 -61 -455 -92 -5 -16 36 -226 47 -236 2 -3
29 8 59 24 77 42 186 84 324 125 200 60 270 100 89 50 -145 -39 -316 -100
-396 -140 -39 -19 -71 -34 -73 -32 -4 5 -35 172 -35 190 0 47 288 99 530 97
238 -2 510 -54 510 -98 0 -9 -40 -207 -88 -441 l-88 -425 -115 -57 c-63 -31
-141 -68 -174 -83 l-61 -26 -169 83 -169 83 -20 99 -20 99 49 44 c51 45 301
234 413 314 35 24 76 54 90 67 l27 24 -33 -19 c-107 -59 -548 -393 -556 -422
-3 -9 5 -63 17 -121 19 -90 25 -106 47 -117 126 -65 315 -153 329 -153 22 0
344 157 352 173 13 23 188 887 183 901 -7 18 -182 61 -304 75 -100 12 -220 17
-310 14z"/>
<path d="M341 1529 c-1 -9 42 -230 95 -490 67 -332 101 -479 112 -490 25 -24
430 -229 453 -229 25 0 429 206 450 230 17 19 15 13 129 569 76 374 86 431 75
420 -2 -3 -47 -216 -100 -475 -52 -258 -97 -478 -100 -489 -3 -14 -69 -53
-230 -135 l-225 -115 -225 115 c-162 82 -227 121 -230 135 -3 11 -48 229 -100
485 -95 465 -103 499 -104 469z"/>
<path d="M795 1302 c-132 -76 -244 -151 -255 -171 -12 -24 28 -193 43 -183 7
4 62 40 122 80 124 82 329 187 514 261 68 28 129 55 135 62 15 15 -12 7 -144
-43 -161 -61 -393 -178 -518 -261 -65 -43 -115 -70 -117 -64 -7 21 -25 118
-25 131 0 14 135 108 268 186 61 36 93 60 80 60 -2 0 -48 -26 -103 -58z"/>
</g>
</svg>
