<?xml version="1.0" standalone="no"?>
<!DOCTYPE svg PUBLIC "-//W3C//DTD SVG 20010904//EN"
 "http://www.w3.org/TR/2001/REC-SVG-20010904/DTD/svg10.dtd">
<svg version="1.0" xmlns="http://www.w3.org/2000/svg"
 width="200.000000pt" height="200.000000pt" viewBox="0 0 200.000000 200.000000"
 preserveAspectRatio="xMidYMid meet">
<metadata>
Created by potrace 1.10, written by Peter Selinger 2001-2011
</metadata>
<g transform="translate(0.000000,200.000000) scale(0.100000,-0.100000)"
fill="#ae5eff" stroke="none">
<path d="M250 1725 c0 -32 38 -187 49 -198 4 -4 138 -30 297 -57 159 -28 295
-53 303 -55 12 -5 13 -39 7 -208 -14 -382 -44 -507 -165 -686 -34 -50 -51 -91
-38 -91 1 0 72 -14 156 -30 84 -17 156 -29 158 -26 3 3 8 19 12 36 l6 30 60
-48 c50 -41 76 -54 155 -76 86 -24 306 -64 436 -80 l51 -6 12 57 c20 101 19
105 -50 138 -54 25 -212 121 -357 215 -63 41 -63 34 1 205 82 218 177 534 168
558 -21 54 -135 109 -271 132 -83 14 -926 197 -972 211 -14 4 -18 -1 -18 -21z
m182 -29 c71 -17 710 -155 833 -180 94 -19 199 -67 222 -103 16 -24 14 -33
-46 -226 -35 -111 -85 -264 -113 -339 -27 -76 -48 -148 -46 -160 2 -15 30 -41
83 -78 77 -54 281 -180 291 -180 2 0 22 -11 44 -25 38 -24 40 -28 40 -73 0
-75 -3 -77 -116 -63 -127 16 -321 55 -404 80 -44 14 -85 36 -127 71 -34 27
-64 50 -67 50 -3 0 -6 -16 -6 -35 0 -26 -4 -35 -17 -35 -22 0 -287 51 -292 56
-3 2 7 17 21 32 68 71 141 246 163 390 18 108 33 562 19 562 -18 0 -598 101
-605 106 -8 5 -39 132 -39 160 0 14 7 16 50 11 27 -3 78 -13 112 -21z"/>
<path d="M327 1435 c-7 -16 30 -134 47 -151 10 -11 443 -70 452 -62 5 5 8 127
3 132 -2 2 -112 23 -244 46 -132 23 -243 44 -246 46 -4 2 -9 -3 -12 -11z m276
-50 c109 -19 202 -37 207 -40 6 -4 10 -29 10 -56 0 -46 -2 -49 -22 -44 -13 2
-104 14 -203 25 -99 12 -189 25 -201 30 -14 5 -26 25 -36 62 -16 56 -11 67 25
61 12 -2 111 -19 220 -38z"/>
<path d="M400 1194 c0 -23 25 -105 40 -133 7 -13 21 -21 38 -21 15 0 94 -11
177 -25 82 -13 151 -22 154 -19 9 8 12 119 4 130 -4 7 -93 26 -197 44 -104 18
-196 34 -203 37 -8 3 -13 -2 -13 -13z m235 -39 c82 -14 152 -29 156 -33 4 -4
9 -28 13 -54 5 -41 3 -48 -12 -48 -36 0 -337 51 -343 58 -7 9 -29 85 -29 101
0 8 11 10 33 6 17 -3 99 -16 182 -30z"/>
<path d="M463 943 c-1 -10 8 -46 19 -81 15 -47 25 -63 41 -67 12 -2 71 -14
131 -25 60 -11 120 -23 133 -26 16 -4 23 -2 23 8 0 10 -40 22 -149 42 l-150
28 -17 50 c-9 27 -12 53 -8 57 10 9 136 -11 241 -37 l68 -17 7 -44 c4 -24 10
-46 13 -49 8 -8 6 82 -3 95 -4 7 -77 26 -162 43 -85 17 -162 33 -171 35 -10 4
-16 -1 -16 -12z"/>
</g>
</svg>
