<?xml version="1.0" standalone="no"?>
<!DOCTYPE svg PUBLIC "-//W3C//DTD SVG 20010904//EN"
 "http://www.w3.org/TR/2001/REC-SVG-20010904/DTD/svg10.dtd">
<svg version="1.0" xmlns="http://www.w3.org/2000/svg"
 width="240.000000pt" height="240.000000pt" viewBox="0 0 240.000000 240.000000"
 preserveAspectRatio="xMidYMid meet">
<metadata>
Created by potrace 1.10, written by Peter Selinger 2001-2011
</metadata>
<g transform="translate(0.000000,240.000000) scale(0.100000,-0.100000)"
fill="#666666" stroke="none">
<path d="M1041 2341 c-19 -17 -28 -32 -22 -36 16 -9 13 -25 -4 -25 -8 0 -15 5
-15 10 0 6 -11 10 -25 10 -14 0 -25 -6 -25 -13 0 -18 -53 -47 -88 -47 -17 0
-32 -6 -36 -15 -3 -8 -16 -15 -30 -15 -13 0 -26 -7 -30 -15 -3 -8 -15 -15 -26
-15 -11 0 -23 -7 -26 -15 -4 -8 -14 -15 -23 -15 -9 0 -31 -13 -49 -30 -37 -33
-52 -38 -52 -15 0 8 7 15 15 15 8 0 15 7 15 15 0 8 5 15 10 15 17 0 50 39 50
58 0 10 16 31 35 46 41 33 45 62 11 77 -22 10 -34 1 -170 -136 -107 -108 -146
-153 -146 -171 0 -15 -6 -24 -16 -24 -12 0 -15 -9 -12 -47 2 -37 0 -48 -13
-51 -10 -2 -19 5 -22 18 -3 14 -13 20 -31 20 -15 0 -26 6 -26 14 0 17 -69 29
-87 14 -22 -18 -15 -43 22 -74 20 -16 35 -38 35 -50 0 -12 7 -24 15 -28 10 -3
15 -19 15 -45 0 -25 5 -41 15 -45 8 -3 15 -15 15 -26 0 -20 -32 -60 -49 -60
-13 0 -21 -27 -15 -45 4 -8 12 -15 20 -15 10 0 14 -13 14 -45 0 -25 4 -45 9
-45 5 0 11 -9 14 -20 7 -26 34 -26 42 0 3 11 11 20 16 20 5 0 9 14 9 30 0 39
10 38 44 -3 21 -25 34 -33 51 -30 16 4 24 -1 28 -17 5 -19 10 -21 37 -15 24 5
34 2 49 -16 l18 -23 12 22 c6 12 19 22 28 22 21 0 93 -73 93 -96 1 -11 14 -30
30 -44 17 -14 30 -34 30 -47 0 -14 6 -23 15 -23 10 0 15 -10 15 -30 0 -51 -36
-39 -105 35 l-59 65 -28 -27 c-33 -32 -36 -58 -8 -73 14 -8 19 -17 15 -30 -4
-13 1 -22 15 -30 13 -7 19 -17 16 -27 -4 -10 11 -31 44 -62 54 -51 62 -74 30
-91 -14 -7 -19 -17 -15 -29 3 -12 -6 -27 -30 -47 -39 -33 -45 -58 -15 -74 20
-11 29 -60 10 -60 -18 0 -110 -101 -110 -121 0 -11 -7 -22 -15 -25 -8 -4 -15
-17 -15 -30 0 -14 -7 -27 -15 -30 -8 -4 -15 -17 -15 -30 0 -14 -7 -27 -15 -30
-8 -4 -15 -18 -15 -31 0 -14 -8 -32 -18 -39 -16 -12 -16 -15 -1 -42 9 -17 13
-35 9 -42 -6 -9 -10 -6 -15 9 -9 29 -29 21 -33 -12 -2 -15 -10 -27 -18 -27
-19 0 -19 -49 1 -64 13 -10 13 -15 -1 -41 -8 -16 -23 -41 -34 -55 -19 -23 -21
-24 -34 -7 -19 24 -35 21 -42 -9 -7 -29 10 -47 38 -38 10 3 21 -3 28 -16 7
-14 19 -20 33 -18 29 4 34 34 6 41 -11 3 -18 10 -14 16 8 13 35 15 35 2 0 -16
78 -91 93 -91 9 0 29 16 45 36 17 20 35 33 41 30 6 -4 43 26 83 66 61 63 71
78 69 105 -1 23 4 35 19 43 14 8 19 17 15 30 -4 13 1 22 15 30 14 8 19 17 15
28 -4 10 2 22 16 33 15 11 19 22 14 37 -3 12 -13 22 -21 22 -23 0 -16 17 21
55 34 33 85 48 85 25 0 -11 40 -51 74 -76 16 -11 18 -17 9 -36 -6 -13 -14 -31
-17 -40 -3 -10 -13 -18 -22 -18 -12 0 -15 -7 -11 -26 3 -20 -1 -27 -19 -34
-25 -10 -32 -38 -13 -57 6 -6 26 -9 45 -6 25 4 35 2 40 -11 5 -12 19 -16 60
-16 50 0 55 2 104 50 27 28 50 60 50 71 0 11 7 22 15 25 11 5 15 21 15 60 0
41 5 59 20 74 24 24 70 27 70 5 0 -10 10 -15 30 -15 26 0 30 -3 30 -29 0 -16
6 -31 15 -35 9 -3 15 -19 15 -41 0 -22 -6 -38 -15 -41 -10 -4 -15 -20 -15 -45
0 -28 -5 -41 -19 -49 -16 -8 -19 -17 -14 -44 4 -28 1 -36 -16 -46 -15 -8 -20
-17 -16 -30 4 -13 -1 -22 -15 -30 -38 -20 -17 -100 27 -100 8 0 17 9 20 20 9
32 28 17 31 -23 3 -34 6 -37 33 -37 16 0 29 5 29 10 0 6 13 10 29 10 16 0 31
6 35 15 8 22 38 18 65 -10 31 -34 51 -31 90 10 31 33 33 39 26 80 -5 36 -3 46
9 51 12 5 16 21 16 66 0 59 0 59 -27 56 -28 -3 -28 -3 -38 -113 -5 -60 -16
-120 -23 -133 l-13 -23 -25 26 c-28 30 -32 80 -7 93 14 9 16 27 10 171 -6 152
-18 219 -31 181 -3 -8 -6 -28 -8 -45 -4 -36 -30 -41 -38 -7 -9 42 -25 28 -28
-25 -2 -39 -8 -55 -21 -62 -15 -8 -19 -28 -25 -107 -7 -100 -17 -124 -54 -124
-11 0 -22 -7 -26 -15 -3 -8 -12 -15 -21 -15 -20 0 -20 39 0 46 8 4 15 17 15
30 0 14 7 27 15 30 10 4 15 20 15 50 0 32 4 44 15 44 11 0 15 11 15 39 0 25 5
41 15 45 10 4 15 20 15 50 0 36 4 46 20 51 30 10 26 38 -5 33 -20 -4 -25 -1
-25 15 0 16 4 18 23 12 12 -4 39 -9 60 -12 29 -4 37 -2 37 11 0 12 -9 16 -34
16 -21 0 -36 6 -40 15 -3 8 -12 15 -21 15 -8 0 -20 11 -25 25 -5 14 -21 30
-35 35 -14 5 -25 16 -25 24 0 7 -7 19 -15 26 -8 7 -15 21 -15 31 0 11 -7 19
-15 19 -29 0 -14 -64 24 -101 36 -36 71 -79 71 -89 0 -16 -14 -12 -33 10 -10
12 -22 18 -27 15 -6 -4 -28 7 -49 24 -31 25 -45 30 -69 25 -24 -5 -32 -2 -41
15 -9 17 -21 21 -57 21 -45 0 -46 1 -39 27 8 33 3 29 42 36 26 5 35 2 43 -13
14 -25 30 -26 30 -1 0 10 11 26 25 35 14 9 25 23 25 31 0 22 15 18 29 -8 10
-20 11 -18 6 14 -5 33 -1 41 35 78 22 22 40 45 40 51 0 18 -20 11 -46 -17 -24
-26 -27 -27 -38 -10 -7 9 -18 17 -23 17 -5 0 -18 9 -28 20 -26 29 -24 94 3
123 12 13 22 29 22 35 0 7 7 12 15 12 8 0 15 7 15 15 0 8 7 15 15 15 9 0 15 9
15 24 0 14 5 28 12 32 22 14 78 4 98 -16 25 -25 46 -24 85 1 17 10 40 24 53
30 12 7 22 16 22 21 0 16 -31 20 -43 5 -7 -8 -33 -17 -59 -21 -40 -5 -49 -3
-58 13 -6 13 -17 17 -30 14 -30 -8 -25 14 10 44 36 30 38 52 6 90 -22 27 -23
32 -16 132 6 80 11 106 24 113 10 6 16 22 16 47 0 25 5 41 15 45 8 3 15 18 15
33 0 35 14 58 29 49 14 -9 15 -136 1 -136 -5 0 -10 -20 -10 -45 0 -33 -4 -45
-15 -45 -11 0 -15 -11 -15 -40 0 -27 5 -43 15 -46 9 -4 15 -19 15 -36 0 -46
24 -28 28 20 2 29 8 42 18 42 10 0 14 12 14 45 0 33 -4 45 -15 45 -9 0 -15 9
-15 25 0 16 6 25 15 25 9 0 15 -9 15 -25 0 -57 40 -12 65 73 3 12 10 22 15 22
5 0 12 10 16 22 4 12 20 33 35 47 16 14 29 33 29 43 0 18 64 88 80 88 6 0 10
7 10 15 0 8 5 15 11 15 7 0 17 7 24 17 7 9 17 13 23 9 17 -10 15 -63 -3 -70
-8 -3 -15 -16 -15 -30 0 -13 -7 -26 -15 -30 -8 -3 -15 -16 -15 -30 0 -13 -7
-26 -15 -30 -8 -3 -15 -16 -15 -30 0 -13 -7 -26 -15 -30 -9 -3 -15 -18 -15
-36 0 -16 -4 -30 -10 -30 -5 0 -10 -6 -10 -13 0 -13 -54 -80 -117 -144 -32
-33 -41 -53 -24 -53 18 0 181 166 181 184 0 19 0 19 18 1 17 -18 16 -21 -33
-74 -27 -30 -78 -84 -112 -119 -60 -60 -74 -82 -54 -82 13 0 171 156 171 169
0 6 4 11 9 11 5 0 29 18 52 40 24 22 52 40 62 40 10 0 21 9 24 20 4 14 14 20
34 20 16 0 29 5 29 10 0 6 18 10 40 10 23 0 42 6 47 14 4 8 24 16 43 18 57 5
51 -24 -22 -97 -34 -36 -70 -65 -79 -65 -9 0 -19 -7 -23 -15 -3 -8 -12 -15
-20 -15 -8 0 -18 -9 -21 -20 -4 -13 -15 -20 -30 -20 -13 0 -27 -4 -30 -10 -3
-5 -15 -10 -25 -10 -11 0 -24 -9 -30 -20 -6 -11 -21 -20 -34 -20 -13 0 -26 -7
-30 -15 -3 -8 -15 -15 -26 -15 -21 0 -60 -33 -60 -50 0 -16 27 -12 34 5 3 8
16 15 30 15 13 0 26 7 30 15 3 8 15 15 26 15 12 0 28 7 37 15 8 8 19 12 24 9
6 -3 19 2 30 12 18 16 19 16 19 -6 0 -12 8 -28 17 -35 14 -10 8 -13 -39 -19
-35 -5 -58 -13 -62 -22 -3 -9 -20 -14 -45 -14 -25 0 -41 -5 -45 -15 -3 -8 -15
-15 -26 -15 -12 0 -28 -6 -36 -14 -7 -8 -19 -16 -26 -18 -15 -5 -1 -28 18 -28
8 0 14 7 14 15 0 9 9 15 24 15 13 0 29 7 36 15 7 9 29 15 50 15 22 0 40 5 43
13 2 7 23 12 56 12 38 0 55 5 62 16 7 13 28 16 119 17 64 0 110 -4 110 -10 0
-19 -29 -38 -59 -38 -16 0 -36 -7 -45 -15 -8 -8 -31 -15 -51 -15 -21 0 -38 -6
-41 -13 -3 -10 -29 -15 -87 -16 -45 -1 -107 -5 -137 -9 -56 -7 -71 -24 -25
-30 29 -4 31 -14 8 -42 -20 -24 -58 -26 -67 -5 -7 20 -75 20 -82 0 -4 -8 -17
-15 -30 -15 -13 0 -28 -9 -34 -20 -15 -28 -70 -28 -70 0 0 21 -15 27 -25 10
-10 -16 37 -60 63 -60 29 0 41 -29 19 -45 -10 -7 -17 -21 -17 -31 0 -10 -16
-36 -35 -57 -38 -41 -48 -93 -20 -103 8 -4 15 -16 15 -29 0 -13 7 -25 15 -29
8 -3 15 -14 15 -24 0 -24 102 -132 125 -132 13 0 16 -5 11 -22 -3 -13 -6 -28
-6 -35 0 -6 -9 -15 -20 -18 -27 -8 -25 -23 3 -27 19 -3 22 -10 25 -50 3 -46 4
-47 40 -50 l37 -3 3 -57 c2 -43 7 -58 17 -58 10 0 15 -10 15 -30 0 -24 4 -30
21 -30 11 0 32 -9 46 -20 33 -26 69 -26 83 0 6 12 21 20 35 20 16 0 25 6 25
15 0 8 3 15 7 15 10 0 53 -51 53 -62 0 -4 7 -8 15 -8 8 0 15 4 15 10 0 5 14
23 30 40 17 17 30 39 30 50 0 11 9 24 20 30 11 6 20 19 20 30 0 11 -9 24 -20
30 -12 6 -20 21 -20 35 0 16 -6 25 -15 25 -8 0 -15 7 -15 15 0 8 7 15 15 15 8
0 16 3 16 8 9 59 7 67 -26 97 -19 17 -35 40 -35 52 0 11 -7 23 -15 27 -8 3
-15 17 -15 31 0 16 -6 25 -15 25 -10 0 -15 10 -15 30 0 27 3 30 30 30 20 0 30
5 30 15 0 10 10 15 29 15 16 0 31 6 35 15 3 8 14 15 25 15 26 0 151 125 151
151 0 11 7 22 15 25 10 4 15 20 15 50 0 37 3 44 20 44 17 0 20 7 20 45 0 33
-4 45 -15 45 -8 0 -19 10 -26 21 -11 21 -13 19 -58 -30 -28 -30 -55 -51 -68
-51 -11 0 -23 -7 -27 -15 -3 -8 -17 -15 -31 -15 -16 0 -25 -6 -25 -15 0 -11
-12 -15 -45 -15 -33 0 -45 -4 -45 -15 0 -12 -13 -15 -60 -15 -47 0 -60 3 -60
15 0 11 -11 15 -40 15 -43 0 -80 26 -80 58 0 9 11 28 25 40 22 21 32 23 101
21 63 -3 78 -1 89 14 9 12 20 15 43 11 24 -5 33 -2 43 14 10 16 20 19 44 15
25 -4 36 0 46 14 8 12 25 20 39 19 37 -2 40 39 5 71 -25 23 -33 25 -141 25
l-114 -1 0 45 c0 41 2 44 26 44 20 0 49 22 116 88 49 48 93 89 99 90 18 7 10
60 -10 67 -11 3 -22 12 -25 20 -9 24 -73 19 -87 -6 -9 -17 -17 -20 -44 -15
-28 6 -36 3 -45 -14 -6 -12 -21 -20 -35 -20 -16 0 -25 -6 -25 -15 0 -10 -10
-15 -30 -15 -20 0 -30 -5 -30 -15 0 -23 -23 -17 -43 11 -18 24 -16 64 4 64 5
0 9 11 9 25 0 14 8 29 20 35 12 6 20 21 20 35 0 14 5 25 10 25 6 0 10 11 10
25 0 13 6 28 14 32 16 9 25 107 12 120 -4 4 -21 8 -38 9 -26 2 -43 -11 -114
-83 -47 -48 -84 -93 -84 -104 0 -11 -7 -22 -15 -25 -8 -4 -15 -12 -15 -19 0
-7 -7 -16 -16 -19 -11 -4 -14 -13 -10 -30 4 -18 1 -25 -14 -29 -12 -3 -20 -14
-20 -26 0 -28 -18 -27 -25 2 -3 12 -6 58 -7 102 -4 99 -18 107 -78 45 -31 -32
-40 -49 -40 -76 0 -22 -6 -37 -15 -40 -10 -4 -15 -20 -15 -44 0 -30 -7 -45
-36 -74 -34 -34 -54 -45 -54 -28 0 11 -49 62 -60 62 -22 0 -60 -56 -60 -90 -1
-26 -8 -41 -30 -60 -17 -13 -30 -30 -30 -38 0 -19 -34 -10 -38 11 -2 9 2 17
10 17 24 0 58 47 58 79 0 35 -30 71 -58 71 -10 0 -31 15 -46 33 -26 32 -32 34
-76 29 -44 -4 -51 -1 -75 24 -15 16 -37 29 -49 29 -18 0 -21 7 -24 43 -2 31 1
44 12 48 9 3 16 15 16 27 0 11 20 40 45 64 25 23 45 52 45 62 0 11 9 25 19 31
16 8 19 17 14 44 -4 27 -1 36 15 45 18 9 19 18 14 78 -3 42 -11 72 -20 79 -11
8 -7 15 22 35 30 20 36 29 34 54 -4 40 -26 42 -67 6z m-41 -80 c0 -5 -7 -14
-15 -21 -9 -7 -14 -19 -11 -27 3 -8 -15 -34 -41 -61 -26 -26 -46 -55 -44 -64
1 -9 -7 -21 -17 -27 -16 -9 -18 -16 -11 -58 l8 -48 -50 -45 c-50 -47 -60 -74
-34 -94 8 -6 17 -31 19 -56 5 -45 29 -104 53 -128 7 -7 13 -22 13 -33 0 -10 4
-19 10 -19 5 0 12 -11 16 -24 3 -14 12 -27 20 -30 8 -3 14 -11 14 -17 0 -7 20
-31 45 -55 43 -40 45 -45 45 -98 0 -49 -2 -56 -20 -56 -11 0 -20 4 -20 10 0 5
-14 23 -31 41 -17 17 -33 46 -36 63 -3 18 -18 47 -34 66 -16 18 -29 38 -29 44
0 6 -28 41 -63 78 l-62 66 -29 -29 c-16 -16 -33 -29 -38 -29 -4 0 -8 -20 -8
-45 0 -33 -4 -45 -15 -45 -9 0 -15 -9 -15 -25 0 -16 -6 -25 -15 -25 -9 0 -15
9 -15 24 0 31 -14 40 -30 21 -16 -19 -60 -20 -60 -1 0 8 6 16 13 19 6 2 9 8 5
12 -8 8 -22 3 -50 -17 -9 -7 -20 -9 -25 -5 -11 12 11 42 35 45 11 2 26 10 32
18 7 8 25 14 40 14 20 0 34 9 51 34 13 19 32 37 41 40 42 10 14 114 -53 196
-63 76 -13 99 57 25 23 -25 45 -45 48 -45 3 0 15 9 27 21 14 14 19 28 15 45
-5 20 -3 24 15 24 20 0 21 4 16 41 -5 35 -2 42 14 46 15 4 19 14 19 49 0 24
-3 44 -7 44 -8 0 -92 -92 -106 -116 -4 -8 -19 -14 -33 -14 -13 0 -27 -7 -30
-15 -4 -10 -15 -12 -35 -8 -22 4 -29 2 -29 -10 0 -8 -6 -17 -13 -20 -7 -3 -19
-24 -27 -47 -8 -23 -20 -44 -27 -47 -7 -3 -13 -13 -13 -23 0 -23 -17 -36 -57
-45 -32 -6 -33 -6 -33 29 0 41 16 47 31 14 8 -20 9 -19 5 8 -4 23 0 37 14 49
11 10 20 24 20 32 0 7 7 13 15 13 8 0 15 9 15 20 0 11 5 20 11 20 7 0 21 9 33
20 59 56 77 69 90 64 8 -3 17 -1 21 5 3 6 1 11 -5 11 -6 0 -8 5 -4 11 4 7 9 8
17 0 7 -7 17 -4 31 9 108 101 129 113 140 85 3 -8 10 -15 15 -15 10 0 81 66
81 75 0 3 8 14 18 24 17 20 62 28 62 12z m-404 -105 c-25 -25 -46 -54 -46 -65
0 -10 -7 -24 -15 -31 -8 -6 -13 -22 -12 -33 1 -16 -4 -23 -22 -25 -13 -2 -35
-15 -50 -28 -43 -40 -57 -27 -21 19 11 14 20 30 20 35 0 17 185 200 188 187 2
-8 -17 -34 -42 -59z m438 -28 c-3 -21 -10 -38 -15 -38 -5 0 -9 -10 -9 -21 0
-12 -18 -39 -40 -60 -68 -66 -111 -42 -50 28 17 18 30 38 30 44 0 6 16 31 35
56 19 25 35 55 36 67 1 16 3 14 10 -9 5 -16 7 -47 3 -67z m-709 -228 c27 -1
59 -26 50 -40 -4 -6 -15 -8 -26 -5 -12 4 -21 1 -25 -9 -9 -24 -24 -19 -24 9 0
13 -6 28 -13 32 -8 4 -16 16 -20 26 -6 17 -5 17 15 2 13 -8 32 -15 43 -15z
m505 -36 c0 -17 -22 -14 -28 4 -2 7 3 12 12 12 9 0 16 -7 16 -16z m-480 -74
c0 -20 5 -30 15 -30 9 0 18 -7 21 -15 4 -9 19 -15 41 -15 27 0 36 5 40 21 4
15 11 19 27 15 15 -4 29 3 49 25 l28 31 23 -24 c21 -20 23 -30 19 -70 -3 -29
-11 -49 -21 -53 -23 -8 -29 5 -9 19 9 7 17 18 17 25 0 16 -35 14 -50 -4 -7 -8
-25 -15 -40 -15 -29 0 -70 -39 -70 -66 0 -18 -31 -54 -47 -54 -7 0 -13 9 -13
20 0 11 5 20 10 20 6 0 10 6 10 13 0 18 -28 75 -41 82 -5 4 -9 13 -9 22 0 9
-7 24 -16 34 -9 10 -14 25 -11 34 10 26 27 17 27 -15z m620 -131 c24 -27 34
-31 62 -26 35 5 103 -27 92 -44 -3 -5 -27 -9 -55 -9 -53 0 -60 -9 -29 -42 18
-20 21 -20 38 -5 10 9 26 17 35 17 9 0 17 5 17 10 0 6 11 10 24 10 16 0 26 -7
30 -22 10 -37 7 -58 -7 -58 -23 0 -49 -37 -42 -58 11 -37 -15 -34 -54 5 -20
21 -40 46 -44 56 -4 9 -18 22 -32 27 -17 7 -25 17 -25 34 0 13 -7 27 -16 30
-10 4 -14 12 -10 23 5 11 -1 23 -15 34 -14 10 -20 22 -16 33 9 22 14 21 47
-15z m-634 -55 c37 -40 42 -54 20 -54 -8 0 -17 -10 -19 -22 -3 -17 -5 -14 -6
9 -1 21 -8 36 -21 43 -12 6 -20 21 -20 35 0 33 5 32 46 -11z m992 -72 c2 -19
11 -36 23 -42 14 -8 19 -21 19 -50 0 -29 4 -40 15 -40 22 0 21 86 -2 94 -14 6
-14 9 5 26 35 33 42 25 42 -50 0 -56 -3 -70 -15 -70 -9 0 -15 -9 -15 -25 0
-20 6 -27 30 -31 44 -9 38 -31 -30 -102 -32 -35 -62 -72 -65 -82 -3 -10 -33
-44 -66 -75 -40 -37 -59 -61 -55 -71 3 -8 -4 -28 -16 -44 l-21 -30 24 -22 c35
-33 76 -58 93 -58 20 0 26 -12 19 -38 -4 -19 -12 -22 -53 -22 -30 0 -52 -6
-60 -15 -7 -8 -24 -15 -39 -15 -29 0 -61 -44 -61 -84 0 -26 29 -53 62 -58 34
-5 37 -38 3 -38 -14 0 -28 -7 -31 -15 -6 -15 -39 -21 -47 -7 -2 4 -2 1 0 -7 4
-15 -13 -31 -33 -31 -17 0 -104 86 -104 103 0 9 -4 19 -10 22 -19 12 -11 38
10 32 29 -7 32 6 8 28 -15 12 -23 14 -26 7 -7 -21 -36 -12 -62 18 -13 17 -33
30 -45 30 -14 0 -24 10 -32 30 -8 22 -20 32 -42 36 -21 5 -31 12 -31 25 0 11
7 19 15 19 17 0 45 50 45 80 0 24 28 27 37 4 6 -17 -14 -63 -36 -80 -11 -8 -5
-17 28 -43 41 -33 66 -36 42 -7 -7 8 -10 20 -7 25 4 6 1 19 -6 30 -18 30 14
61 63 61 32 0 41 -5 54 -30 8 -16 15 -38 15 -50 0 -27 -47 -70 -76 -70 -29 0
-30 -4 -5 -29 18 -18 20 -18 47 -1 16 9 38 27 48 39 12 13 31 21 52 21 35 0
55 17 34 30 -7 4 -21 5 -31 3 -14 -4 -19 0 -19 15 0 11 -7 27 -15 36 -8 8 -15
18 -15 22 0 4 -7 16 -17 26 -13 14 -31 18 -84 18 -64 0 -69 2 -75 24 -3 13
-25 43 -50 67 -24 24 -44 49 -44 56 0 7 -9 21 -20 30 -11 10 -20 26 -20 36 0
10 -7 25 -15 33 -16 16 -20 44 -7 44 4 0 36 -32 72 -70 36 -38 69 -70 74 -70
5 0 18 -7 28 -16 20 -19 42 -8 53 27 5 15 16 19 51 19 32 0 44 -4 44 -15 0 -9
9 -15 24 -15 16 0 27 -7 31 -20 9 -27 61 -28 68 -1 3 14 11 18 25 14 15 -3 31
7 62 41 23 25 51 48 62 52 40 12 76 64 44 64 -14 0 -26 29 -26 68 0 12 -4 22
-10 22 -5 0 -10 -11 -10 -24 0 -29 -18 -44 -26 -22 -3 9 -17 16 -30 16 -13 0
-28 9 -34 19 -14 27 -13 41 5 41 19 0 55 31 55 47 0 8 12 13 30 13 28 0 30 -2
30 -40 0 -28 4 -40 14 -40 8 0 16 6 19 14 8 19 -4 96 -14 96 -11 0 -12 64 -2
74 14 13 28 -1 31 -32z m252 -12 c0 -20 -5 -30 -15 -30 -10 0 -15 10 -15 30 0
20 5 30 15 30 10 0 15 -10 15 -30z m-746 -135 c31 -31 56 -64 56 -74 0 -10 16
-29 35 -42 50 -34 45 -63 -12 -67 -40 -3 -43 -2 -43 23 0 14 -7 28 -15 31 -8
4 -15 18 -15 33 -1 16 -12 35 -30 51 -17 13 -30 32 -30 42 0 9 -7 21 -16 26
-16 9 -12 32 5 32 5 0 34 -25 65 -55z m281 -39 c19 -18 35 -38 35 -45 0 -6 10
-10 23 -9 12 2 22 -1 22 -7 0 -5 -3 -9 -7 -7 -5 1 -8 -2 -8 -8 0 -5 5 -10 10
-10 21 0 9 -30 -22 -54 -29 -22 -35 -24 -44 -11 -13 17 -40 20 -49 5 -16 -25
-75 6 -75 39 0 9 10 27 23 41 27 31 49 78 42 91 -14 22 19 6 50 -25z m1221
-248 c-9 -5 -16 -19 -16 -31 0 -25 -106 -141 -139 -152 -11 -3 -21 -10 -21
-14 0 -5 -23 -11 -50 -13 -28 -3 -58 -12 -68 -22 -10 -9 -34 -16 -54 -16 -28
0 -42 8 -71 41 -21 22 -37 45 -37 50 0 18 31 22 48 6 26 -24 136 -25 161 -3
14 13 28 16 50 11 24 -5 32 -2 41 14 6 12 18 21 26 21 21 0 63 51 64 76 0 11
9 29 20 39 11 10 20 22 20 27 0 4 8 16 18 26 16 16 17 16 20 -17 2 -23 -2 -37
-12 -43z m-618 23 c10 -6 10 -10 -3 -21 -19 -16 -19 -44 0 -60 8 -7 15 -20 15
-30 0 -10 6 -23 14 -29 8 -7 18 -26 21 -43 4 -16 16 -40 27 -52 54 -59 83 -86
90 -86 4 0 8 -11 8 -24 0 -15 12 -34 30 -49 24 -21 30 -33 30 -67 0 -58 -20
-60 -69 -8 -28 30 -41 52 -41 73 0 34 -62 107 -84 99 -7 -3 -20 6 -29 20 -27
40 -68 31 -112 -26 -39 -52 -52 -58 -62 -30 -3 9 -13 25 -21 34 -19 22 -9 48
19 48 26 0 59 27 59 48 0 9 7 23 16 33 9 10 19 39 21 63 5 43 4 46 -23 57 -29
11 -29 11 -6 22 12 5 22 16 22 24 0 15 56 18 78 4z m110 -113 c12 -2 16 -15
17 -56 0 -87 -28 -55 -39 44 -3 27 -3 41 0 32 3 -9 13 -18 22 -20z m-108 -218
c0 -6 -11 -15 -25 -20 -14 -5 -25 -17 -25 -26 0 -13 -6 -15 -32 -10 -38 7 -42
11 -33 26 17 28 115 53 115 30z m-973 -86 c4 -10 -1 -22 -10 -29 -10 -7 -17
-21 -17 -31 0 -11 -8 -24 -19 -31 -10 -7 -18 -23 -18 -38 0 -14 -9 -32 -19
-40 -18 -14 -18 -15 2 -32 12 -10 27 -28 33 -40 14 -28 45 -29 78 -3 14 11 30
20 34 20 14 0 10 -27 -6 -40 -8 -7 -15 -20 -15 -30 0 -10 -7 -23 -15 -30 -8
-7 -15 -20 -15 -30 0 -22 -24 -32 -56 -24 -21 6 -24 3 -24 -24 0 -17 -6 -32
-15 -36 -10 -3 -15 -19 -15 -45 0 -52 -8 -71 -30 -71 -10 0 -35 -16 -54 -35
-20 -19 -41 -35 -46 -35 -17 0 -20 18 -5 30 8 7 15 20 15 30 0 10 7 23 15 30
8 7 15 29 15 50 0 24 5 40 15 44 8 3 15 16 15 30 0 13 7 26 15 30 10 3 15 19
15 45 0 25 5 41 15 45 19 7 22 90 3 84 -7 -3 -15 -15 -18 -29 -10 -43 -35 -29
-38 22 -3 40 1 50 26 76 16 16 41 54 56 85 15 31 32 59 39 62 23 9 38 6 44
-10z m114 -47 c-8 -8 -11 -7 -11 4 0 20 13 34 18 19 3 -7 -1 -17 -7 -23z m839
13 c8 -15 21 -20 50 -20 36 0 40 -2 40 -25 0 -14 7 -28 15 -31 12 -5 15 -29
15 -126 0 -108 2 -119 18 -116 15 3 17 15 14 100 -2 61 1 105 8 119 18 32 30
7 30 -63 0 -31 5 -60 10 -63 6 -3 10 -24 10 -46 0 -29 4 -39 16 -39 12 0 15
11 14 53 -2 73 -2 77 14 77 19 0 28 -42 20 -99 -4 -31 -2 -51 5 -55 6 -4 11
-20 11 -37 0 -24 -4 -29 -25 -29 -14 0 -28 -6 -31 -14 -8 -20 -41 -26 -54 -11
-6 8 -21 15 -33 17 -18 2 -23 11 -25 45 -2 29 -8 43 -18 43 -8 0 -14 10 -14
25 0 14 -7 28 -15 31 -12 5 -15 24 -15 86 0 80 0 81 -39 119 -21 22 -48 39
-60 39 -20 0 -28 19 -14 33 13 14 43 6 53 -13z m-860 -15 c0 -8 -4 -15 -10
-15 -5 0 -10 7 -10 15 0 8 5 15 10 15 6 0 10 -7 10 -15z m1188 -27 c7 -7 12
-29 12 -50 0 -43 20 -59 51 -39 17 10 19 8 19 -25 0 -30 -3 -34 -19 -29 -15 4
-20 -1 -24 -27 -3 -21 1 -39 10 -49 18 -21 15 -160 -4 -167 -8 -2 -13 6 -13
22 0 13 -4 27 -9 30 -13 8 -34 132 -27 160 4 15 -1 31 -14 46 -14 17 -20 38
-20 75 0 64 11 80 38 53z m-814 -85 c-18 -13 -40 -23 -49 -23 -24 0 -12 24 13
28 12 2 22 10 22 18 0 8 7 14 15 14 8 0 15 6 16 13 0 6 4 3 8 -8 6 -16 1 -25
-25 -42z m6 -77 c0 -30 -5 -46 -15 -50 -8 -3 -15 -14 -15 -25 0 -21 -49 -84
-50 -64 0 6 5 15 10 18 6 3 10 19 10 36 0 19 5 29 15 29 13 0 15 9 9 50 -6 46
-5 50 15 50 18 0 21 -6 21 -44z m-120 -89 c0 -21 -8 -41 -20 -52 -24 -22 -39
-12 -22 15 7 11 12 28 12 38 0 10 3 22 7 25 14 15 23 5 23 -26z m-644 -105
c-12 -11 -18 7 -10 30 l8 23 4 -23 c2 -13 1 -26 -2 -30z m74 -7 c0 -36 -5 -57
-14 -62 -8 -4 -16 -19 -18 -33 -4 -34 -51 -36 -56 -2 -2 13 3 25 12 28 9 3 16
17 16 30 0 14 7 27 15 30 8 4 15 16 15 28 0 13 3 26 7 29 16 17 23 3 23 -48z
m1051 -85 c-4 -88 -15 -109 -66 -126 -11 -4 -25 -14 -32 -23 -20 -27 -29 14
-9 44 9 13 16 31 16 39 0 7 7 16 15 20 8 3 15 16 15 28 0 13 7 32 15 42 8 10
12 23 9 28 -10 16 5 40 23 36 16 -3 18 -14 14 -88z"/>
<path d="M742 1748 c2 -40 8 -73 13 -73 6 0 11 33 13 73 2 60 0 72 -13 72 -13
0 -15 -12 -13 -72z"/>
<path d="M1320 1326 c0 -37 3 -46 18 -46 9 0 28 12 41 25 24 26 23 42 -1 33
-25 -10 -33 -8 -33 9 0 9 -6 18 -12 20 -9 3 -13 -9 -13 -41z"/>
<path d="M810 1074 c1 -23 23 -54 39 -54 19 0 12 25 -14 50 -23 22 -25 22 -25
4z"/>
<path d="M1008 1049 c-22 -24 -24 -69 -3 -69 8 0 15 5 15 11 0 8 4 8 14 0 11
-10 16 -8 21 8 3 12 13 21 21 21 8 0 14 7 14 15 0 18 -30 20 -31 3 0 -7 -5 -3
-11 10 -13 26 -17 26 -40 1z"/>
<path d="M1103 975 c-14 -31 -10 -31 21 0 21 20 22 25 8 25 -9 0 -22 -11 -29
-25z"/>
<path d="M1100 815 c0 -13 9 -16 43 -13 23 2 42 8 42 13 0 6 -19 11 -42 13
-34 3 -43 0 -43 -13z"/>
<path d="M980 670 c0 -6 7 -13 15 -16 8 -4 15 -12 15 -20 0 -8 5 -14 11 -14 7
0 18 -8 25 -17 7 -10 16 -14 21 -10 4 5 0 14 -10 21 -9 7 -17 18 -17 25 0 6
-7 11 -15 11 -8 0 -15 7 -15 15 0 8 -7 15 -15 15 -8 0 -15 -5 -15 -10z"/>
<path d="M1887 343 c-4 -3 -7 -23 -7 -44 0 -30 3 -37 15 -33 8 4 15 18 15 33
0 30 -13 55 -23 44z"/>
<path d="M1497 1453 c-4 -3 -7 -20 -7 -38 0 -22 8 -38 30 -55 16 -14 29 -31
30 -37 0 -18 30 -16 30 2 0 8 7 15 15 15 8 0 15 -4 15 -9 0 -6 11 -22 24 -36
27 -29 59 -30 64 -2 3 13 -3 17 -23 17 -14 0 -28 7 -31 15 -4 8 -12 15 -20 15
-8 0 -14 7 -14 15 0 8 7 15 15 15 8 0 15 7 15 15 0 25 -24 17 -45 -15 -24 -37
-45 -39 -45 -5 0 14 -7 28 -15 31 -9 4 -15 19 -15 35 0 28 -9 37 -23 22z"/>
<path d="M1440 801 c0 -19 6 -34 15 -37 8 -4 15 -16 15 -28 0 -23 47 -76 68
-76 17 0 15 9 -9 34 -12 12 -31 46 -44 76 -27 63 -45 76 -45 31z"/>
<path d="M368 239 c-22 -24 -24 -69 -3 -69 10 0 15 10 15 30 0 20 5 30 15 30
8 0 15 7 15 15 0 20 -21 17 -42 -6z"/>
</g>
</svg>
