<?xml version="1.0" standalone="no"?>
<!DOCTYPE svg PUBLIC "-//W3C//DTD SVG 20010904//EN"
 "http://www.w3.org/TR/2001/REC-SVG-20010904/DTD/svg10.dtd">
<svg version="1.0" xmlns="http://www.w3.org/2000/svg"
 width="240.000000pt" height="240.000000pt" viewBox="0 0 240.000000 240.000000"
 preserveAspectRatio="xMidYMid meet">
<metadata>
Created by potrace 1.10, written by Peter Selinger 2001-2011
</metadata>
<g transform="translate(0.000000,240.000000) scale(0.100000,-0.100000)"
fill="#666666" stroke="none">
<path d="M1400 2380 c0 -11 -7 -20 -15 -20 -10 0 -15 -10 -15 -30 0 -20 -5
-30 -15 -30 -10 0 -15 -10 -15 -30 0 -20 -5 -30 -15 -30 -10 0 -15 -10 -15
-29 0 -16 -6 -31 -15 -35 -8 -3 -15 -13 -15 -23 0 -10 -20 -38 -45 -62 -25
-24 -45 -47 -45 -52 0 -5 -20 -9 -45 -9 -49 0 -58 -15 -27 -43 25 -23 33 -21
62 13 19 23 32 30 61 30 22 0 39 6 42 14 4 10 25 14 72 14 37 0 69 3 72 6 10
10 -9 26 -33 26 -17 0 -24 5 -24 20 0 16 5 19 23 15 18 -5 32 2 60 30 37 37
37 38 37 120 0 64 -3 84 -15 89 -8 3 -15 12 -15 21 0 10 -10 15 -30 15 -23 0
-30 -4 -30 -20z m30 -56 c0 -15 -6 -24 -16 -24 -12 0 -15 -7 -11 -26 3 -20 0
-28 -14 -31 -11 -3 -19 -14 -19 -24 0 -25 -16 -33 -24 -12 -4 11 -1 22 8 29 9
6 16 21 16 33 0 12 7 24 15 27 8 4 15 16 15 28 0 13 3 26 6 29 12 11 24 -3 24
-29z"/>
<path d="M2090 2345 c0 -10 -10 -15 -30 -15 -20 0 -30 -5 -30 -15 0 -10 -10
-15 -30 -15 -20 0 -30 -5 -30 -15 0 -10 -10 -15 -30 -15 -20 0 -30 -5 -30 -15
0 -10 -10 -15 -30 -15 -20 0 -30 -5 -30 -15 0 -10 -10 -15 -30 -15 -20 0 -30
-5 -30 -15 0 -10 -10 -15 -30 -15 -20 0 -30 -5 -30 -15 0 -10 -10 -15 -30 -15
-20 0 -30 -5 -30 -15 0 -10 -10 -15 -30 -15 -20 0 -30 -5 -30 -15 0 -10 -10
-15 -30 -15 -20 0 -30 -5 -30 -15 0 -11 -13 -15 -55 -15 -34 0 -57 -5 -62 -13
-4 -8 -16 -16 -25 -20 -34 -12 -18 -27 29 -27 28 0 53 6 64 16 14 12 22 13 38
4 26 -14 18 -30 -15 -30 -15 0 -24 -6 -24 -15 0 -20 4 -19 50 7 21 13 42 19
47 15 4 -5 0 -13 -10 -18 -9 -6 -17 -15 -17 -21 0 -6 -14 -24 -31 -39 -25 -23
-30 -33 -25 -54 9 -35 41 -30 41 6 1 34 29 62 54 54 11 -3 22 -1 26 5 9 14 35
13 35 -2 0 -7 14 -22 30 -33 19 -12 30 -29 30 -43 0 -12 7 -25 15 -28 8 -4 15
-14 15 -23 0 -9 16 -32 35 -51 23 -22 33 -40 30 -51 -4 -12 1 -22 15 -29 14
-8 19 -17 15 -30 -4 -12 0 -22 13 -29 16 -8 19 -21 18 -77 -1 -44 -5 -69 -14
-72 -6 -2 -12 -15 -12 -28 0 -14 -7 -27 -15 -30 -8 -4 -15 -17 -15 -30 0 -15
-13 -33 -35 -51 -19 -15 -35 -36 -35 -46 0 -10 -13 -30 -30 -44 -16 -13 -30
-32 -30 -40 0 -10 -6 -13 -16 -9 -9 3 -22 6 -30 6 -8 0 -14 6 -14 13 -1 21
-37 57 -59 57 -12 0 -21 6 -21 13 0 18 48 60 60 52 5 -3 10 1 10 9 0 9 7 16
15 16 8 0 12 6 9 14 -3 8 3 23 13 33 17 18 19 17 45 -9 32 -33 68 -37 75 -8 3
11 12 20 19 20 9 0 14 12 14 35 0 19 -4 35 -10 35 -5 0 -10 9 -10 20 0 11 -16
34 -34 51 -21 18 -33 36 -29 44 3 8 -2 18 -11 21 -14 6 -46 57 -46 75 0 19
-53 60 -74 57 -29 -4 -29 -42 2 -46 13 -2 22 -10 22 -20 0 -10 14 -28 30 -42
17 -14 30 -34 30 -46 0 -22 38 -64 58 -64 7 0 12 -13 12 -29 0 -16 6 -31 15
-35 8 -3 15 -17 15 -31 0 -50 -38 -30 -141 75 -55 55 -99 102 -99 105 0 3 -9
14 -21 26 l-21 21 -44 -43 c-24 -24 -44 -49 -44 -55 0 -19 -33 -76 -55 -96
-11 -9 -28 -17 -38 -18 -10 0 -20 -7 -23 -15 -9 -22 -85 -20 -105 3 -12 14
-13 22 -5 35 8 13 7 25 -5 46 -13 22 -14 32 -6 40 9 9 8 17 -1 31 -7 12 -8 21
-2 25 22 14 10 35 -20 35 -27 0 -30 -3 -30 -30 0 -20 5 -30 15 -30 8 0 15 -7
15 -15 0 -8 -7 -15 -15 -15 -19 0 -19 -26 0 -34 22 -8 18 -44 -6 -57 -21 -11
-20 -13 26 -55 45 -41 50 -43 94 -37 25 3 50 12 54 20 4 7 19 13 32 13 16 0
25 6 25 15 0 8 6 15 14 15 8 0 16 -7 20 -15 15 -39 86 3 86 50 0 16 6 25 16
25 11 0 15 8 12 28 -3 24 1 27 27 30 24 2 34 -3 50 -28 11 -16 26 -30 33 -30
8 0 12 -16 12 -45 0 -25 -4 -45 -10 -45 -5 0 -36 -27 -68 -60 -50 -51 -64 -60
-94 -60 -23 0 -38 -6 -42 -15 -3 -8 -16 -15 -30 -15 -13 0 -26 -7 -30 -15 -3
-8 -15 -15 -26 -15 -12 0 -39 -19 -62 -45 -33 -36 -48 -45 -75 -45 -27 0 -42
-9 -76 -45 -24 -25 -51 -45 -61 -45 -9 0 -19 -7 -22 -15 -16 -40 -93 2 -94 51
0 12 -7 24 -15 28 -8 3 -15 16 -15 30 0 13 -7 26 -15 30 -19 7 -20 56 -1 56
12 0 26 28 26 56 0 7 -24 36 -54 66 l-53 55 -77 6 -76 5 -45 -45 c-25 -24 -45
-49 -45 -55 0 -11 46 -58 57 -58 3 0 11 7 18 17 7 9 17 13 23 9 19 -11 14 -44
-7 -51 -11 -3 -22 -13 -25 -21 -8 -22 -26 -7 -26 22 0 41 -27 28 -34 -17 -4
-22 -4 -44 -1 -50 11 -17 54 -10 65 11 16 30 52 25 75 -10 11 -16 29 -30 40
-30 25 0 65 -42 65 -68 0 -11 7 -22 15 -26 8 -3 15 -17 15 -31 0 -16 6 -25 15
-25 9 0 15 -9 15 -25 0 -38 33 -65 80 -65 36 0 40 -2 40 -25 0 -14 7 -28 15
-31 8 -4 15 -12 15 -20 0 -10 -15 -14 -59 -14 -43 0 -60 -4 -65 -15 -3 -8 -15
-15 -26 -15 -33 0 -60 -35 -60 -80 l0 -40 -60 0 c-47 0 -60 3 -60 15 0 9 -9
15 -25 15 -14 0 -28 7 -31 15 -4 8 -17 15 -30 15 -14 0 -27 7 -30 15 -4 8 -16
15 -28 15 -11 0 -34 14 -50 30 -16 17 -33 30 -38 30 -4 0 -8 7 -8 15 0 8 6 15
14 15 8 0 18 10 22 22 5 16 1 26 -15 36 -15 11 -21 25 -21 52 0 24 -5 40 -15
44 -8 3 -15 15 -15 26 0 12 -24 44 -60 77 -49 47 -60 63 -60 90 0 22 6 36 21
43 13 7 18 17 15 27 -4 10 2 24 15 36 16 15 20 27 15 49 -4 20 -1 30 9 34 11
4 15 21 15 59 0 34 5 57 15 65 11 9 15 35 15 106 0 71 3 95 14 101 12 7 15 44
17 195 1 102 -2 191 -5 197 -13 21 -39 11 -77 -31 -21 -24 -39 -46 -39 -50 0
-5 -7 -8 -15 -8 -9 0 -15 9 -15 24 0 29 -40 76 -63 76 -24 0 -32 -20 -28 -77
2 -42 0 -53 -12 -53 -8 0 -17 6 -20 14 -7 17 -97 28 -115 14 -18 -16 -14 -46
8 -58 11 -6 20 -21 20 -34 0 -13 7 -26 15 -30 8 -3 15 -16 15 -30 0 -13 7 -26
15 -30 8 -3 15 -16 15 -28 1 -13 14 -34 30 -48 17 -13 30 -34 30 -46 0 -12 7
-24 15 -28 8 -3 15 -16 15 -30 0 -13 7 -26 15 -30 21 -8 21 -104 0 -112 -8 -4
-15 -16 -15 -28 0 -12 -13 -33 -30 -46 -16 -14 -29 -35 -30 -48 0 -12 -7 -25
-15 -28 -8 -4 -15 -17 -15 -30 0 -12 -8 -27 -17 -33 -12 -6 -16 -20 -15 -45 2
-25 -2 -38 -13 -42 -12 -5 -15 -24 -15 -95 0 -49 -4 -89 -9 -89 -6 0 -22 -11
-36 -24 -28 -26 -28 -59 0 -70 8 -3 15 -16 15 -30 0 -13 7 -27 16 -30 8 -3 14
-14 12 -24 -3 -17 96 -122 114 -122 4 0 8 -7 8 -15 0 -11 11 -15 36 -15 33 0
46 -9 113 -77 46 -47 83 -77 93 -75 9 2 21 -6 27 -17 7 -12 18 -17 30 -14 13
3 23 -2 31 -17 8 -15 17 -19 31 -15 12 4 21 1 25 -9 4 -11 19 -16 45 -16 26 0
42 -5 45 -15 5 -12 25 -15 95 -15 69 0 89 -3 89 -14 0 -8 7 -16 15 -20 8 -3
15 -17 15 -31 0 -16 6 -25 15 -25 10 0 15 -10 15 -29 0 -16 6 -31 15 -35 8 -3
15 -14 15 -25 0 -26 95 -121 121 -121 11 0 22 -7 25 -15 4 -9 19 -15 35 -15
19 0 29 -5 29 -15 0 -11 12 -15 44 -15 30 0 46 -5 50 -15 4 -12 27 -15 115
-15 98 0 111 2 121 19 12 24 45 17 76 -16 17 -19 31 -23 78 -23 31 0 56 5 56
10 0 6 14 10 30 10 20 0 30 5 30 15 0 10 10 15 28 15 19 0 33 9 47 30 12 18
29 30 42 30 23 0 253 219 253 241 0 13 -79 89 -92 89 -15 0 -8 30 7 30 9 0 15
9 15 25 0 13 7 28 16 33 10 5 18 27 21 54 4 38 2 49 -17 66 -12 11 -19 25 -16
31 11 17 -102 121 -130 121 -41 0 -29 37 30 96 30 30 61 54 70 54 9 0 19 7 22
15 4 10 20 15 45 15 26 0 42 5 45 15 9 22 31 18 37 -5 8 -32 40 -23 85 24 53
56 54 83 6 130 -28 27 -35 41 -32 60 4 18 -3 35 -22 56 -38 42 -76 41 -114 -5
-16 -19 -38 -35 -48 -35 -10 0 -28 -10 -40 -22 -17 -17 -21 -31 -19 -82 2 -59
1 -62 -38 -99 -21 -20 -48 -37 -59 -37 -11 0 -22 -7 -26 -15 -3 -8 -17 -15
-31 -15 -16 0 -25 -6 -25 -15 0 -8 -7 -15 -15 -15 -8 0 -15 7 -15 15 0 9 7 18
15 21 38 15 -3 84 -49 84 -13 0 -26 7 -30 15 -3 8 -17 15 -31 15 -16 0 -25 6
-25 15 0 8 4 15 8 15 19 0 172 161 172 180 0 12 7 23 15 26 8 4 15 17 15 30 0
14 7 27 15 30 9 4 15 19 15 35 0 19 5 29 15 29 12 0 15 18 15 105 0 87 -3 105
-15 105 -11 0 -15 12 -15 45 0 33 -4 45 -15 45 -9 0 -15 9 -15 24 0 34 -122
156 -154 156 -13 0 -26 7 -30 15 -3 8 -15 15 -26 15 -25 0 -63 37 -57 55 3 8
15 11 31 8 19 -4 26 -1 26 11 0 11 9 16 29 16 16 0 31 6 35 15 3 8 16 15 30
15 13 0 26 7 30 15 7 20 86 21 86 1 0 -16 41 -29 65 -20 9 4 68 59 131 122
103 103 115 118 112 146 -3 31 -4 31 -65 34 -52 2 -63 0 -63 -13z m54 -21 c22
-8 10 -24 -19 -24 -25 0 -39 12 -28 24 8 8 27 8 47 0z m-54 -39 c0 -10 -10
-15 -30 -15 -20 0 -30 -5 -30 -15 0 -10 -10 -15 -30 -15 -20 0 -30 -5 -30 -15
0 -10 -10 -15 -30 -15 -21 0 -30 -5 -30 -16 0 -11 -8 -14 -25 -12 -32 4 -34
22 -3 26 13 2 27 10 31 18 4 8 19 14 31 14 13 0 26 7 30 15 3 8 16 15 30 15
13 0 26 7 30 15 3 8 17 15 31 15 16 0 25 -6 25 -15z m-370 -185 c0 -5 -7 -10
-15 -10 -8 0 -15 5 -15 10 0 6 7 10 15 10 8 0 15 -4 15 -10z m-60 -30 c0 -5
-9 -10 -20 -10 -11 0 -20 5 -20 10 0 6 9 10 20 10 11 0 20 -4 20 -10z m-46
-36 c5 -12 0 -15 -21 -12 -14 2 -28 9 -31 16 -6 18 45 15 52 -4z m-1294 -86
c0 -9 6 -29 14 -45 19 -38 46 -124 46 -145 0 -9 6 -21 14 -25 10 -6 12 -24 7
-78 -5 -61 -8 -70 -26 -70 -18 0 -20 8 -25 95 -4 76 -8 95 -20 95 -12 0 -15
-15 -15 -77 1 -43 -3 -78 -7 -78 -4 0 -8 9 -8 19 0 11 -7 26 -15 35 -8 8 -15
24 -15 36 0 11 -11 31 -25 44 -14 13 -25 33 -25 45 0 12 -7 24 -15 27 -8 4
-15 17 -15 30 0 12 -6 27 -14 31 -20 12 -27 63 -9 70 8 3 19 -1 26 -10 7 -9
23 -17 37 -19 17 -2 26 -10 28 -25 2 -13 8 -23 13 -23 5 0 9 -18 9 -39 0 -42
16 -63 31 -40 17 27 10 71 -11 76 -15 4 -18 11 -14 28 3 13 -2 37 -11 55 -10
20 -14 42 -10 58 6 25 6 25 30 -14 14 -21 25 -47 25 -56z m104 -79 c3 -74 2
-117 0 -96 -3 22 -13 42 -23 49 -15 9 -18 20 -14 49 4 30 2 40 -11 45 -9 3
-16 17 -16 31 0 28 40 77 53 64 4 -4 9 -68 11 -142z m1037 -372 c-17 -18 -21
-19 -21 -5 0 9 7 18 15 22 8 3 16 13 16 23 1 16 2 16 6 -1 3 -11 -4 -27 -16
-39z m-1089 -55 c-2 -26 -11 -54 -18 -63 -8 -8 -14 -29 -14 -46 0 -17 -7 -36
-15 -43 -8 -7 -15 -20 -15 -30 0 -10 -7 -23 -16 -31 -11 -9 -15 -28 -13 -68 3
-61 5 -59 -64 -48 -32 5 -38 3 -33 -9 3 -8 -2 -27 -12 -42 l-17 -26 -5 39 c-3
25 1 59 12 90 10 27 18 62 18 77 0 16 4 28 9 28 10 0 21 -49 21 -97 0 -46 22
-39 34 11 7 26 6 43 -2 57 -7 10 -12 28 -12 38 0 11 -4 23 -10 26 -17 11 -11
24 15 31 19 5 25 13 25 35 0 17 9 36 20 46 11 10 20 29 20 43 0 34 49 67 66
44 7 -8 9 -34 6 -62z m336 -104 c3 -26 1 -28 -37 -28 -48 0 -58 12 -34 39 27
30 67 23 71 -11z m62 2 c-6 -11 -13 -20 -15 -20 -3 0 -5 9 -5 20 0 11 7 20 15
20 13 0 14 -4 5 -20z m96 -43 c1 -1 0 -15 -3 -30 -4 -19 -10 -26 -20 -23 -8 3
-35 6 -59 6 -48 0 -54 9 -26 40 14 16 26 19 61 15 25 -3 46 -6 47 -8z m674
-67 c0 -5 12 -13 28 -16 35 -9 62 -32 62 -55 0 -10 9 -23 20 -29 21 -11 27
-44 11 -55 -6 -3 -14 2 -19 12 -11 19 -76 20 -99 2 -7 -7 -49 -10 -102 -8 -80
4 -90 2 -95 -14 -3 -14 -12 -18 -33 -15 -25 3 -28 8 -31 42 -4 44 27 86 64 86
12 0 24 7 28 15 3 8 16 15 30 15 13 0 26 7 30 15 6 17 106 22 106 5z m698 -60
c4 -64 -8 -80 -37 -51 -25 25 -27 64 -4 91 26 30 38 19 41 -40z m-1402 19 l19
-22 -40 7 c-52 10 -63 18 -39 27 31 12 40 10 60 -12z m879 -29 c3 -6 -1 -13
-10 -16 -19 -8 -30 0 -20 15 8 14 22 14 30 1z m450 -50 c33 -34 23 -43 -41
-38 -28 2 -40 8 -42 21 -10 53 38 63 83 17z m135 -38 c0 -15 -50 -61 -67 -62
-28 0 -22 23 14 58 36 36 52 37 53 4z m-1944 -17 c19 -18 34 -43 34 -54 0 -11
9 -25 20 -31 23 -12 26 -56 6 -82 -17 -23 -22 -22 -45 1 -12 12 -17 27 -14 40
3 14 0 23 -11 27 -9 3 -16 17 -16 30 0 14 -7 27 -15 30 -18 7 -21 74 -4 74 7
0 27 -16 45 -35z m542 10 c6 -14 8 -25 4 -25 -12 0 -32 23 -32 37 0 22 16 15
28 -12z m292 15 c0 -5 7 -10 15 -10 30 0 14 -35 -45 -96 -33 -34 -60 -71 -60
-81 0 -16 -31 -53 -45 -53 -9 0 -5 39 5 45 6 3 10 17 10 31 0 16 20 43 63 85
37 37 57 64 50 66 -15 6 -17 23 -3 23 6 0 10 -4 10 -10z m-930 -35 c0 -14 7
-28 15 -31 9 -4 15 -19 15 -35 0 -16 5 -29 10 -29 6 0 10 -9 10 -20 0 -11 16
-35 35 -54 36 -36 36 -46 -2 -46 -12 0 -23 -4 -23 -10 0 -16 -18 -12 -40 10
-11 11 -17 26 -14 33 2 7 -4 21 -15 31 -11 10 -17 23 -15 30 3 7 -2 19 -11 26
-8 7 -15 21 -15 31 0 10 -7 22 -16 27 -15 8 -15 11 1 36 24 36 65 36 65 1z
m1384 0 c16 -24 16 -26 -10 -48 -20 -18 -27 -34 -28 -63 -2 -36 -4 -39 -35
-42 -73 -7 -104 80 -47 133 14 13 26 29 26 35 0 5 17 10 39 10 30 0 42 -5 55
-25z m-708 -30 c4 -8 12 -15 20 -15 8 0 14 -4 14 -10 0 -5 -7 -10 -15 -10 -8
0 -15 -8 -15 -17 0 -12 -5 -9 -15 11 -8 15 -15 35 -15 42 0 19 19 18 26 -1z
m824 0 c7 -8 21 -15 31 -15 12 0 19 -7 19 -20 0 -15 -7 -20 -25 -20 -14 0 -25
4 -25 9 0 5 -12 11 -27 13 -20 2 -29 9 -31 26 -3 18 1 22 21 22 14 0 30 -7 37
-15z m-701 -54 c-39 -36 -69 -41 -69 -11 0 12 7 20 16 20 9 0 27 9 42 20 41
33 51 7 11 -29z m395 33 c3 -9 6 -30 6 -48 0 -26 -13 -45 -71 -104 -76 -78
-85 -80 -127 -27 -11 14 -28 25 -38 25 -27 1 -64 35 -64 59 0 12 3 21 8 21 4
0 20 12 36 28 60 56 76 62 162 62 66 0 83 -3 88 -16z m-1294 -13 c0 -10 7 -24
15 -31 8 -7 15 -21 15 -32 0 -10 7 -21 15 -24 8 -4 15 -16 15 -28 0 -12 13
-33 30 -46 31 -27 41 -56 14 -46 -9 3 -31 6 -50 6 -22 0 -34 5 -34 14 0 8 -7
16 -15 20 -8 3 -15 14 -15 24 0 11 -6 25 -14 31 -8 7 -12 20 -9 30 2 9 -3 23
-11 30 -18 15 -21 41 -6 41 6 0 10 7 10 15 0 8 9 15 20 15 13 0 20 -7 20 -19z
m1530 -16 c7 -8 23 -15 36 -15 13 0 27 -6 31 -14 4 -8 19 -16 33 -18 34 -4 36
-51 2 -56 -13 -2 -25 3 -28 12 -3 9 -17 16 -30 16 -14 0 -27 7 -30 15 -4 8
-14 15 -24 15 -28 0 -45 27 -30 45 7 8 16 15 20 15 4 0 13 -7 20 -15z m300
-15 c0 -11 -7 -20 -15 -20 -8 0 -15 -4 -15 -9 0 -5 -18 -28 -40 -51 -44 -46
-77 -49 -66 -7 3 12 6 28 6 35 0 6 11 12 25 12 14 0 28 7 31 15 4 8 17 15 30
15 14 0 27 7 30 15 8 21 14 19 14 -5z m-1530 -92 c0 -16 -3 -19 -11 -11 -6 6
-8 16 -5 22 11 17 16 13 16 -11z m1245 6 c28 -18 33 -34 10 -34 -8 0 -15 -3
-15 -7 0 -10 -67 -83 -75 -83 -3 0 -19 -14 -34 -31 -26 -28 -33 -30 -98 -31
-39 0 -76 3 -82 6 -14 9 -14 26 -1 26 12 0 54 35 89 74 47 53 65 66 87 66 12
0 24 7 28 15 7 20 60 19 91 -1z m-192 -10 c3 -3 -34 -46 -84 -95 -49 -49 -89
-93 -89 -98 0 -15 93 -23 185 -16 59 4 85 20 85 52 0 18 20 16 42 -4 29 -26
22 -43 -17 -43 -19 0 -35 -4 -35 -10 0 -5 -8 -10 -19 -10 -10 0 -24 -7 -31
-15 -14 -17 -46 -20 -55 -5 -3 6 -10 10 -16 10 -5 0 -9 -4 -9 -10 0 -5 7 -10
15 -10 17 0 20 -25 5 -35 -5 -3 -18 -2 -28 4 -25 13 -102 2 -102 -15 0 -8 -9
-14 -20 -14 -13 0 -20 7 -20 19 0 11 -9 23 -20 26 -29 9 -25 35 4 35 33 0 43
18 20 35 -18 13 -18 14 -1 20 9 4 17 17 17 28 0 13 27 48 67 89 62 62 89 78
106 62z m-1077 -49 c14 -15 21 -32 17 -41 -4 -11 0 -15 13 -12 13 2 18 -2 16
-14 -2 -11 3 -18 14 -18 13 0 15 -6 10 -31 -9 -45 22 -67 86 -61 47 4 49 3 99
-47 40 -41 50 -57 47 -79 -3 -25 -1 -27 36 -28 22 0 42 -6 44 -12 2 -8 -12
-12 -46 -12 -41 0 -51 4 -55 19 -4 16 -11 19 -46 14 -46 -6 -59 12 -16 23 28
7 27 6 19 28 -9 24 -33 19 -44 -10 -7 -18 -15 -24 -26 -20 -9 3 -20 6 -25 6
-5 0 -9 7 -9 15 0 8 9 15 19 15 50 0 74 38 26 42 -60 4 -60 4 -57 -19 3 -18
-2 -23 -18 -23 -16 0 -20 4 -15 19 4 13 0 20 -15 24 -12 3 -20 13 -20 26 0 18
-3 19 -26 11 -32 -13 -35 -12 -59 6 -17 13 -18 16 -5 24 8 5 25 10 38 10 28 0
29 23 2 50 -29 29 -50 26 -50 -9 0 -17 -5 -33 -10 -36 -13 -8 -49 35 -43 51 3
8 -2 11 -15 7 -24 -6 -36 21 -16 37 8 7 14 19 14 27 0 11 7 13 26 9 20 -5 30
-2 41 14 18 26 21 25 49 -5z m749 5 c10 -11 26 -20 35 -20 9 0 27 -11 40 -25
13 -14 29 -25 37 -25 22 0 15 -35 -12 -60 -44 -41 -66 -97 -72 -185 -5 -76 -4
-82 14 -87 15 -4 22 -17 26 -52 4 -26 13 -54 21 -61 8 -8 16 -19 18 -24 5 -15
149 3 162 20 6 9 30 19 54 22 34 6 42 4 42 -8 0 -8 7 -15 16 -15 12 0 14 -7 9
-29 -5 -24 -2 -32 15 -41 17 -9 21 -19 18 -53 -3 -37 -6 -42 -26 -39 -20 2
-22 -1 -17 -19 6 -19 4 -21 -19 -15 -14 3 -38 9 -52 12 -20 5 -26 2 -31 -15
-5 -18 -13 -21 -58 -21 -48 0 -57 4 -95 40 -39 36 -42 43 -37 76 5 30 3 37
-13 41 -12 3 -20 14 -20 27 -1 33 -33 66 -59 59 -12 -3 -21 -1 -21 5 0 6 -10
16 -21 23 -19 10 -26 7 -53 -25 -38 -41 -58 -40 -98 8 -25 31 -27 41 -32 149
-4 97 -2 117 10 117 10 0 14 12 14 40 0 29 5 42 20 50 14 8 19 17 15 30 -3 10
0 22 7 27 7 4 24 25 38 45 19 29 33 38 60 41 19 2 38 4 41 5 3 1 14 -7 24 -18z
m668 0 c10 -11 29 -20 46 -20 16 0 31 -6 35 -15 3 -8 15 -15 26 -15 21 0 27
-14 10 -25 -14 -9 -13 -31 3 -47 50 -53 67 -81 56 -94 -13 -16 -4 -34 17 -34
11 0 13 9 8 40 -5 33 -4 40 10 40 12 0 16 -10 16 -40 0 -22 -4 -40 -10 -40 -5
0 -10 -11 -10 -24 0 -13 -9 -34 -19 -47 l-20 -24 -50 53 c-28 30 -55 51 -61
47 -14 -9 -62 39 -58 57 4 17 -78 97 -107 104 -14 3 -26 16 -29 30 -15 58 96
101 137 54z m-853 -60 c0 -5 -4 -10 -9 -10 -5 0 -11 -12 -13 -27 -3 -26 -6
-27 -53 -28 -43 0 -50 3 -50 20 0 13 8 21 22 23 12 2 27 10 33 18 14 16 70 19
70 4z m711 -12 c20 -24 25 -58 10 -58 -6 0 -21 10 -34 23 -20 18 -22 25 -13
40 14 22 14 22 37 -5z m322 -37 c9 -16 17 -36 17 -45 0 -23 -21 -20 -27 4 -3
11 -12 20 -19 20 -8 0 -14 10 -14 25 0 34 22 32 43 -4z m-1457 -12 c10 -17
-13 -36 -27 -22 -12 12 -4 33 11 33 5 0 12 -5 16 -11z m1220 -31 c36 -35 31
-72 -15 -118 -22 -22 -48 -40 -59 -40 -11 0 -22 -7 -26 -15 -3 -8 -17 -15 -31
-15 -14 0 -25 -4 -25 -10 0 -5 -13 -10 -30 -10 -19 0 -30 -5 -30 -14 0 -18
-42 -29 -52 -13 -4 7 -8 38 -8 70 0 62 21 97 60 97 11 0 23 7 26 15 4 9 19 15
35 15 19 0 29 5 29 15 0 9 9 15 25 15 14 0 28 7 31 15 9 22 43 18 70 -7z
m-862 -14 c20 -8 21 -54 2 -54 -10 0 -16 -14 -18 -42 l-3 -43 -65 -3 c-64 -2
-66 -1 -95 34 -16 20 -42 49 -57 66 -32 34 -33 38 -13 38 8 0 15 -7 15 -15 0
-11 12 -15 44 -15 46 0 56 -9 56 -56 0 -41 27 -28 33 17 9 65 48 93 101 73z
m346 -89 c0 -14 5 -25 10 -25 6 0 10 -5 10 -11 0 -6 -10 -9 -22 -7 -23 3 -34
28 -24 54 9 23 26 16 26 -11z m596 -20 c4 -8 15 -15 25 -15 10 0 28 -9 39 -20
21 -21 27 -50 10 -50 -6 0 -14 -8 -17 -17 -10 -24 -65 -72 -85 -73 -10 0 -22
-9 -28 -20 -6 -11 -21 -20 -34 -20 -13 0 -26 -7 -30 -15 -3 -8 -14 -15 -26
-15 -11 0 -31 -9 -44 -21 -20 -18 -23 -27 -19 -58 4 -20 17 -46 30 -58 30 -28
29 -43 -1 -43 -13 0 -26 -7 -30 -15 -6 -16 -41 -21 -50 -7 -3 5 4 16 15 26 17
14 19 24 13 64 -4 25 -13 52 -20 60 -8 7 -14 20 -14 28 0 8 -7 17 -15 20 -8 4
-15 12 -15 20 0 8 -6 14 -14 14 -8 0 -16 6 -19 14 -3 7 -23 18 -44 24 l-38 10
52 1 c41 1 56 5 65 21 7 11 22 20 34 20 12 0 24 7 28 15 3 8 16 15 30 15 13 0
26 7 30 15 3 8 15 15 26 15 12 0 31 11 44 25 13 14 28 25 34 25 5 0 12 7 16
15 3 8 15 15 26 15 11 0 23 -7 26 -15z m-386 -58 c0 -49 -3 -55 -45 -96 -25
-24 -45 -47 -45 -52 0 -15 -58 -10 -64 6 -3 8 -17 15 -31 15 -21 0 -25 5 -25
30 0 20 5 30 15 30 11 0 15 12 15 45 0 43 1 45 30 45 20 0 30 5 30 15 0 12 13
15 60 15 l60 0 0 -53z m-580 -40 c0 -19 -1 -19 -20 -2 -21 19 -18 37 5 28 8
-3 15 -14 15 -26z m367 -1 c-4 -9 -11 -16 -17 -16 -11 0 -14 33 -3 43 11 11
26 -10 20 -27z m756 -16 c9 -11 24 -20 33 -20 12 0 15 -6 10 -25 -5 -19 -3
-23 9 -19 32 13 12 -16 -78 -109 -51 -53 -101 -97 -110 -97 -10 0 -20 -6 -23
-14 -8 -22 -75 -31 -86 -12 -5 9 -16 16 -25 16 -8 0 -26 10 -39 23 -37 35 -30
97 11 97 13 0 26 7 29 16 4 10 13 13 26 9 13 -4 22 -1 26 9 3 9 16 16 29 16
22 0 117 85 129 116 8 20 39 17 59 -6z m-849 -140 c20 0 55 -71 56 -112 0 -41
-33 -36 -67 10 -35 47 -55 63 -70 57 -21 -7 -15 29 8 54 19 20 22 21 38 7 10
-9 25 -16 35 -16z m596 -200 c0 -14 -7 -20 -21 -20 -12 0 -23 -8 -26 -20 -5
-17 -14 -20 -65 -20 -43 0 -59 3 -56 13 3 6 17 13 31 15 15 2 27 8 27 13 0 5
11 9 24 9 13 0 29 7 36 15 18 22 50 19 50 -5z"/>
<path d="M1350 594 c0 -12 6 -15 23 -10 12 3 28 6 35 6 6 0 12 5 12 10 0 6
-16 10 -35 10 -26 0 -35 -4 -35 -16z"/>
<path d="M1196 698 c-9 -35 -7 -68 4 -68 6 0 10 11 10 25 0 14 7 28 15 31 21
9 19 34 -4 34 -11 0 -21 -9 -25 -22z"/>
<path d="M1147 599 c-10 -11 -16 -24 -12 -27 3 -4 9 -2 13 4 4 6 15 13 25 17
9 3 17 11 17 17 0 17 -25 11 -43 -11z"/>
<path d="M1158 510 c-24 -27 -27 -89 -5 -101 9 -6 17 -21 17 -34 0 -18 5 -25
20 -25 15 0 20 7 20 25 0 14 -9 34 -20 45 -24 24 -26 62 -5 80 8 7 12 16 9 21
-8 14 -18 11 -36 -11z"/>
<path d="M1070 453 c0 -28 3 -34 10 -23 13 20 13 60 0 60 -5 0 -10 -17 -10
-37z"/>
<path d="M1440 250 c0 -5 7 -10 15 -10 8 0 15 -7 15 -15 0 -8 5 -15 10 -15 15
0 12 19 -4 36 -17 16 -36 19 -36 4z"/>
<path d="M1316 223 c-3 -3 -2 -19 1 -36 12 -61 67 -85 118 -51 31 20 31 35 2
61 -22 18 -110 37 -121 26z m104 -53 c0 -23 -38 -28 -58 -8 -20 20 -14 28 23
28 28 0 35 -4 35 -20z"/>
<path d="M1546 191 c-3 -5 -15 -7 -26 -4 -15 4 -20 0 -20 -15 0 -33 19 -36 46
-7 13 14 24 28 24 31 0 8 -19 4 -24 -5z"/>
<path d="M2005 530 c-8 -13 -1 -24 14 -19 6 3 7 10 2 18 -6 10 -10 10 -16 1z"/>
<path d="M1617 545 c-10 -7 -14 -16 -9 -19 12 -7 42 3 42 14 0 16 -15 18 -33
5z"/>
<path d="M1560 490 c0 -11 5 -20 10 -20 6 0 10 9 10 20 0 11 -4 20 -10 20 -5
0 -10 -9 -10 -20z"/>
<path d="M1925 330 c-41 -38 -79 -70 -84 -70 -17 0 -13 -17 6 -24 9 -4 20 -1
24 6 4 6 40 45 80 85 93 93 72 96 -26 3z"/>
<path d="M1793 233 c-15 -5 -18 -33 -4 -33 13 0 33 28 24 33 -4 2 -14 2 -20 0z"/>
<path d="M1290 2021 c0 -12 29 -23 41 -15 18 10 9 24 -16 24 -14 0 -25 -4 -25
-9z"/>
<path d="M1036 1985 c-3 -8 -16 -15 -30 -15 -13 0 -26 -7 -30 -15 -3 -8 -17
-15 -31 -15 -22 0 -25 -4 -25 -39 0 -22 -6 -44 -15 -51 -21 -18 -19 -46 7 -75
26 -30 53 -32 68 -5 9 16 21 20 61 20 36 0 51 -4 56 -16 3 -8 15 -14 27 -12
30 4 64 -33 72 -79 4 -21 10 -43 15 -48 4 -6 9 -46 11 -90 l3 -79 33 -8 c29
-8 37 -6 58 17 13 14 24 29 24 33 0 9 -49 32 -67 32 -23 0 -26 46 -5 86 21 40
76 82 86 65 4 -5 2 -12 -4 -16 -22 -14 -10 -35 21 -35 l32 0 -6 65 c-4 36 -9
70 -12 75 -8 14 -62 12 -88 -2 -22 -11 -22 -11 6 -23 l27 -11 -33 -30 -34 -29
-16 22 c-11 13 -13 24 -7 28 16 10 12 25 -7 26 -11 0 -7 4 10 11 46 16 31 42
-26 46 -31 2 -55 10 -68 23 -25 25 -66 25 -74 -1 -3 -11 -13 -20 -22 -20 -12
0 -14 7 -10 29 5 25 3 30 -20 36 -21 5 -31 1 -44 -17 -16 -21 -18 -21 -25 -5
-7 20 30 67 53 67 20 0 73 41 73 57 0 18 -37 16 -44 -2z m-88 -177 c-6 -18
-28 -21 -28 -4 0 9 7 16 16 16 9 0 14 -5 12 -12z"/>
<path d="M1175 1959 c-4 -5 -18 -15 -32 -20 l-25 -9 24 -25 c12 -14 26 -25 31
-25 11 0 47 38 47 51 0 21 35 3 55 -28 23 -37 35 -42 35 -15 0 20 24 45 53 55
10 4 15 11 12 17 -8 14 -192 13 -200 -1z"/>
<path d="M1410 1941 c0 -17 18 -21 24 -6 3 9 0 15 -9 15 -8 0 -15 -4 -15 -9z"/>
<path d="M1222 1894 c4 -21 22 -23 26 -1 2 10 -3 17 -13 17 -10 0 -15 -6 -13
-16z"/>
<path d="M1630 1893 c0 -5 7 -17 15 -27 8 -11 15 -30 15 -43 0 -12 14 -38 30
-56 17 -19 30 -39 30 -44 0 -5 13 -14 29 -20 50 -18 44 9 -10 52 -44 36 -49
44 -46 75 3 26 -2 39 -17 52 -22 18 -46 24 -46 11z"/>
<path d="M1322 1595 c3 -33 7 -41 26 -43 18 -3 22 1 22 23 0 15 -7 28 -17 32
-10 4 -22 11 -26 17 -4 6 -6 -7 -5 -29z"/>
<path d="M1814 1584 c3 -9 6 -21 6 -27 0 -16 20 14 20 31 0 6 -7 12 -16 12
-11 0 -14 -5 -10 -16z"/>
</g>
</svg>
