<?xml version="1.0" standalone="no"?>
<!DOCTYPE svg PUBLIC "-//W3C//DTD SVG 20010904//EN"
 "http://www.w3.org/TR/2001/REC-SVG-20010904/DTD/svg10.dtd">
<svg version="1.0" xmlns="http://www.w3.org/2000/svg"
 width="240.000000pt" height="240.000000pt" viewBox="0 0 240.000000 240.000000"
 preserveAspectRatio="xMidYMid meet">
<metadata>
Created by potrace 1.10, written by Peter Selinger 2001-2011
</metadata>
<g transform="translate(0.000000,240.000000) scale(0.100000,-0.100000)"
fill="#666666" stroke="none">
<path d="M384 2345 c-4 -8 -18 -15 -33 -16 -19 -1 -40 -17 -76 -59 -37 -44
-57 -58 -77 -59 -18 -1 -28 -7 -28 -16 0 -9 -9 -15 -25 -15 -15 0 -38 -14 -60
-35 -31 -32 -35 -41 -35 -89 0 -39 -4 -55 -15 -60 -8 -3 -15 -17 -15 -31 0
-14 -4 -25 -10 -25 -5 0 -10 -20 -10 -45 0 -25 5 -45 10 -45 6 0 10 -20 10
-44 0 -30 5 -46 15 -50 8 -3 15 -14 15 -26 0 -11 10 -31 22 -45 l22 -25 23 24
c13 14 23 34 23 46 0 11 7 23 15 26 8 4 15 17 15 30 0 36 34 64 77 65 32 0 43
7 73 44 24 30 43 44 60 44 16 1 32 12 45 31 17 25 26 30 60 30 32 -1 45 -7 65
-30 13 -17 32 -30 41 -30 10 0 36 -17 58 -38 l41 -38 -25 -22 c-19 -17 -38
-22 -80 -22 -42 0 -55 -3 -55 -15 0 -11 -12 -15 -45 -15 -33 0 -45 -4 -45 -15
0 -11 -12 -15 -45 -15 -33 0 -45 -4 -45 -15 0 -9 -9 -15 -23 -15 -32 0 -157
-125 -157 -157 0 -12 -5 -23 -10 -23 -6 0 -19 -9 -30 -20 -25 -25 -28 -95 -5
-104 8 -3 15 -17 15 -31 0 -16 6 -25 15 -25 9 0 15 -9 15 -25 0 -14 7 -28 15
-31 8 -4 15 -10 15 -16 0 -10 -71 -78 -82 -78 -5 0 -8 -12 -8 -27 0 -20 -9
-34 -30 -48 -29 -19 -30 -23 -30 -92 0 -58 3 -73 15 -73 11 0 15 -12 15 -44 0
-30 5 -46 15 -50 8 -3 15 -17 15 -31 0 -16 6 -25 15 -25 12 0 15 -15 15 -75 0
-60 3 -75 15 -75 22 0 19 -46 -5 -70 -15 -15 -33 -20 -73 -20 -46 0 -55 -3
-66 -24 -11 -20 -10 -28 3 -48 15 -22 21 -24 71 -20 46 4 55 2 55 -12 0 -13
11 -16 60 -16 45 0 62 -4 66 -15 5 -11 22 -15 64 -15 39 0 64 -5 74 -15 21
-21 36 -19 36 6 0 14 -10 24 -30 32 -32 12 -40 34 -15 43 8 4 15 11 15 18 1
22 77 96 93 90 10 -3 20 2 27 15 7 14 21 21 42 21 17 0 39 6 47 14 11 10 30
13 64 9 44 -5 67 -23 29 -23 -9 0 -23 -9 -30 -20 -7 -11 -20 -20 -30 -20 -23
0 -89 -60 -94 -85 -2 -13 -12 -21 -31 -23 -18 -2 -27 -9 -27 -21 0 -14 9 -17
53 -16 45 0 55 -4 75 -27 15 -18 22 -37 20 -55 -3 -25 -7 -28 -39 -28 -20 0
-43 -6 -52 -14 -11 -9 -28 -11 -48 -7 -18 3 -37 2 -44 -4 -16 -13 -85 -1 -85
16 0 8 -20 15 -55 19 -30 4 -58 11 -61 16 -3 5 -23 9 -45 9 -24 0 -38 4 -34
10 3 6 22 10 41 10 45 0 41 24 -4 28 -20 2 -42 -5 -62 -19 l-30 -23 26 -27
c22 -23 32 -26 60 -22 25 4 35 2 40 -11 4 -11 18 -16 43 -16 35 -1 81 -28 81
-48 0 -5 -10 -12 -22 -15 -22 -6 -22 -7 7 -36 24 -24 36 -28 62 -24 24 4 34 1
39 -11 4 -11 18 -16 43 -16 29 0 42 -7 61 -30 14 -16 35 -29 48 -30 12 0 25
-7 28 -15 4 -10 20 -15 45 -15 26 0 42 -5 45 -15 4 -10 20 -15 50 -15 32 0 44
-4 44 -15 0 -12 13 -15 60 -15 33 0 60 -4 60 -10 0 -6 47 -10 120 -10 93 0
120 3 120 13 0 10 14 13 55 9 44 -4 56 -1 61 12 4 11 19 16 50 16 32 0 44 4
44 15 0 10 10 15 30 15 20 0 30 5 30 15 0 10 10 15 30 15 20 0 30 5 30 15 0
10 10 15 30 15 20 0 30 5 30 15 0 9 9 15 25 15 18 0 41 16 75 52 28 29 50 56
50 60 0 4 7 8 15 8 10 0 15 10 15 30 0 20 5 30 15 30 10 0 15 10 15 30 0 27 3
30 30 30 20 0 30 5 30 15 0 10 10 15 29 15 16 0 31 6 35 15 3 10 19 15 45 15
25 0 41 5 45 15 3 10 19 15 45 15 26 0 41 5 45 16 3 9 13 13 23 10 16 -5 73
34 73 49 0 3 -12 17 -27 30 -24 20 -35 23 -75 18 -39 -5 -49 -3 -54 11 -6 15
-19 17 -92 15 -58 -2 -87 0 -89 8 -5 13 31 53 47 53 5 0 10 20 10 45 0 33 4
45 15 45 8 0 15 -7 15 -15 0 -21 16 -19 40 5 12 12 20 33 20 55 0 22 6 38 15
41 10 4 15 21 15 54 0 56 -15 74 -30 36 -5 -14 -14 -26 -20 -26 -14 0 -13 63
1 77 6 6 15 33 20 59 8 41 6 50 -11 69 l-20 21 24 23 c26 25 49 21 39 -6 -4
-9 1 -21 12 -29 14 -10 17 -22 12 -54 -4 -31 -2 -40 9 -40 8 0 17 7 20 15 4 8
15 15 25 15 16 0 18 -5 13 -24 -10 -42 6 -51 34 -20 24 25 26 34 23 96 -2 57
0 68 13 68 23 0 23 115 1 124 -8 3 -15 16 -15 28 0 14 -11 31 -30 43 -28 19
-30 24 -30 87 0 46 -4 70 -14 75 -21 12 -30 82 -12 89 23 9 56 -32 56 -68 1
-19 10 -45 23 -61 l23 -27 22 25 c12 14 22 34 22 45 0 12 7 23 15 26 12 5 15
28 15 120 l0 114 -37 35 c-21 19 -46 35 -56 35 -10 0 -31 14 -46 31 -25 26
-34 30 -75 28 -37 -2 -50 1 -58 14 -8 14 -26 17 -116 17 -100 0 -109 -2 -129
-24 -13 -13 -23 -33 -23 -44 0 -11 -7 -22 -15 -26 -10 -3 -15 -19 -15 -45 0
-25 -5 -41 -15 -45 -8 -3 -15 -15 -15 -26 0 -23 -33 -60 -55 -60 -9 0 -15 9
-15 25 0 14 -4 25 -10 25 -15 0 -12 -32 6 -76 11 -25 14 -53 10 -80 -4 -32 -2
-44 9 -48 8 -3 15 -14 15 -24 0 -10 13 -31 30 -47 26 -25 30 -26 36 -10 5 11
1 21 -9 27 -10 5 -17 20 -17 33 0 14 -4 25 -9 25 -5 0 -12 23 -16 51 -6 44 -4
53 16 75 18 19 32 24 75 24 37 0 54 -4 58 -15 3 -8 13 -15 23 -15 23 0 93 -79
93 -106 0 -11 -5 -25 -12 -32 -17 -17 -48 -15 -48 3 0 8 -7 15 -15 15 -26 0
-56 -35 -53 -61 3 -20 -2 -25 -25 -27 -20 -3 -27 -8 -25 -20 4 -22 41 -27 58
-7 7 8 21 15 31 15 20 0 26 24 9 35 -15 10 -12 35 5 35 8 0 15 -4 15 -10 0
-13 37 -50 50 -50 6 0 10 11 10 25 0 14 7 28 15 31 12 5 15 25 15 90 0 73 -2
85 -20 94 -11 6 -20 17 -20 25 0 9 -5 24 -12 34 -10 16 -7 23 20 46 23 19 32
35 32 56 0 38 20 37 49 -2 16 -22 21 -38 16 -56 -4 -19 -1 -29 15 -40 11 -8
20 -25 20 -39 0 -20 4 -24 18 -20 9 3 24 1 32 -4 13 -9 11 -14 -12 -33 -22
-18 -28 -31 -28 -64 0 -23 6 -46 14 -52 10 -9 15 -37 15 -100 0 -49 4 -96 7
-105 4 -10 -1 -25 -11 -36 -9 -10 -14 -24 -10 -30 9 -15 -13 -40 -31 -33 -18
7 -55 -30 -79 -77 -10 -19 -24 -39 -31 -43 -8 -4 -14 -17 -14 -27 0 -26 -15
-33 -33 -15 -9 8 -24 15 -35 15 -10 0 -29 11 -42 25 -20 21 -30 24 -58 19 -32
-6 -34 -5 -27 15 6 19 3 21 -29 21 -19 0 -38 -5 -41 -10 -3 -6 -19 -10 -36
-10 -19 0 -29 -5 -29 -15 0 -8 -7 -15 -15 -15 -10 0 -15 -10 -15 -30 0 -20 -5
-30 -15 -30 -9 0 -15 -10 -15 -26 0 -23 -33 -63 -52 -64 -5 0 -8 13 -8 29 0
16 -6 31 -15 35 -8 3 -15 16 -15 30 0 13 -7 26 -15 30 -8 3 -15 16 -15 30 0
13 -7 26 -15 30 -21 8 -19 70 2 107 10 16 21 29 25 29 16 0 48 -35 48 -52 0
-21 65 -88 85 -88 18 0 32 23 18 27 -21 7 -63 52 -63 68 0 18 -79 95 -98 95
-26 0 -62 32 -62 56 0 29 21 31 38 4 7 -11 18 -20 26 -20 7 0 19 -7 26 -15 17
-21 30 -19 30 5 0 11 -7 20 -15 20 -8 0 -15 7 -15 15 0 10 -10 15 -29 15 -18
0 -31 6 -36 18 -6 16 -7 16 -20 -2 -20 -26 -38 -10 -29 27 3 18 10 37 14 42 5
6 11 27 15 48 6 32 4 42 -14 58 -11 11 -21 28 -21 38 0 10 -9 26 -21 37 -11
10 -18 26 -16 36 3 10 1 21 -4 24 -5 3 -9 17 -9 31 l0 25 27 -31 c15 -17 36
-31 45 -31 10 0 27 -5 38 -12 10 -7 22 -9 26 -5 9 9 -38 57 -57 57 -8 0 -28
16 -43 35 l-28 35 -29 -28 c-26 -25 -29 -34 -25 -77 2 -31 9 -51 20 -57 11 -6
16 -23 16 -58 0 -30 5 -52 13 -57 20 -12 29 -79 13 -93 -10 -8 -20 -2 -42 25
-17 22 -36 35 -51 35 -14 0 -23 6 -23 15 0 9 -9 15 -25 15 -32 0 -65 33 -65
65 0 16 -6 25 -15 25 -11 0 -15 12 -15 44 0 30 -5 46 -15 50 -8 3 -15 15 -15
26 0 25 -34 60 -59 60 -27 0 -91 67 -91 96 0 15 -6 24 -15 24 -11 0 -15 12
-15 45 0 33 -4 45 -15 45 -10 0 -15 10 -15 30 0 20 -5 30 -15 30 -9 0 -15 9
-15 25 0 14 -9 34 -20 45 -11 11 -31 20 -45 20 -16 0 -25 6 -25 15 0 10 -10
15 -30 15 -20 0 -30 5 -30 15 0 10 -10 15 -30 15 -20 0 -30 5 -30 15 0 10 -10
15 -29 15 -16 0 -31 6 -35 15 -4 11 -20 15 -56 15 -36 0 -52 -4 -56 -15z m162
-141 c74 -37 97 -56 137 -105 38 -49 47 -68 47 -100 l0 -39 -45 34 c-65 50
-161 96 -199 96 -33 0 -160 -53 -172 -71 -10 -17 -42 -9 -73 17 -17 14 -31 31
-31 37 1 7 18 26 38 44 20 17 53 45 72 61 38 32 108 72 126 72 6 0 52 -21 100
-46z m-401 -184 c3 -5 17 -10 31 -10 19 0 24 -5 24 -24 0 -13 7 -29 15 -36 8
-7 15 -20 15 -29 0 -17 -42 -61 -59 -61 -5 0 -11 -7 -15 -15 -3 -8 -12 -15
-21 -15 -10 0 -15 -10 -16 -27 l0 -28 -11 25 -10 25 -10 -25 c-11 -25 -11 -25
-23 14 -6 22 -17 42 -23 44 -18 6 -15 69 3 76 8 3 15 16 15 30 0 13 7 26 15
30 8 3 15 12 15 21 0 17 45 21 55 5z m659 -144 c49 -48 61 -75 44 -92 -33 -34
-119 55 -103 106 9 28 21 25 59 -14z m-60 -85 c15 -17 17 -30 9 -98 -10 -94
-22 -101 -81 -44 -22 22 -53 41 -69 43 l-28 4 29 12 c16 7 47 33 68 57 22 25
43 45 47 45 4 0 16 -9 25 -19z m1439 13 c7 -8 -30 -64 -43 -64 -21 0 -20 35 2
52 25 19 32 21 41 12z m-333 -19 c17 -20 8 -50 -15 -50 -15 0 -21 8 -23 33 -4
35 16 44 38 17z m-902 -45 c0 -17 4 -45 7 -62 6 -25 4 -30 -8 -25 -8 3 -20 0
-26 -6 -8 -8 -11 -6 -11 10 0 12 -8 23 -20 26 -13 3 -20 14 -20 30 0 14 -4 29
-10 32 -23 14 -9 27 24 21 20 -4 37 -2 41 4 11 17 22 3 23 -30z m-110 -33 c2
-16 10 -31 18 -34 8 -3 14 -15 14 -28 0 -12 6 -28 14 -35 8 -6 13 -17 10 -24
-7 -19 40 -68 58 -61 11 4 20 -1 28 -14 6 -12 21 -21 34 -21 13 0 26 -7 30
-15 3 -8 16 -15 30 -15 13 0 26 -7 30 -15 3 -8 15 -15 26 -15 20 0 60 -32 60
-49 0 -5 -7 -11 -15 -15 -8 -3 -15 -17 -15 -31 0 -27 -24 -35 -34 -10 -3 8
-16 15 -28 15 -13 1 -34 14 -48 30 -13 17 -32 30 -41 30 -20 0 -162 137 -155
149 3 5 -3 16 -14 26 -12 11 -20 31 -20 50 0 20 -6 35 -15 39 -15 5 -21 57 -8
70 15 15 38 0 41 -27z m1379 -3 c13 -28 7 -84 -9 -84 -11 0 -58 50 -58 61 0
13 33 49 45 49 5 0 15 -12 22 -26z m-1826 -111 c7 -20 7 -34 -2 -50 -14 -26
-29 -30 -29 -8 0 8 5 15 10 15 6 0 10 7 10 15 0 8 -5 15 -10 15 -6 0 -13 -7
-16 -15 -8 -19 -34 -20 -34 -1 0 8 -7 17 -16 20 -8 3 -12 11 -9 17 5 7 13 5
25 -6 17 -16 19 -15 30 4 15 28 28 26 41 -6z m259 -38 c0 -14 7 -28 15 -31 8
-4 15 -17 15 -30 0 -14 7 -27 15 -30 9 -4 15 -19 15 -35 0 -19 -5 -29 -15 -29
-9 0 -15 -9 -15 -25 0 -34 -29 -61 -74 -68 -32 -5 -39 -3 -43 13 -4 16 -14 20
-49 20 -34 0 -44 4 -44 16 0 14 -9 16 -55 12 -73 -6 -85 9 -40 47 19 16 35 36
35 46 0 23 67 89 91 89 11 0 22 7 25 15 5 11 22 15 65 15 56 0 59 -1 59 -25z
m-347 -1 c9 -4 17 -12 17 -20 0 -7 7 -17 16 -22 10 -5 14 -15 10 -21 -6 -9
-11 -9 -22 0 -12 10 -18 9 -31 -4 -14 -13 -14 -19 -3 -32 11 -13 11 -19 -3
-32 -24 -25 -71 -7 -75 28 -3 22 2 28 24 33 22 6 25 11 21 33 -6 33 2 56 17
48 6 -3 19 -8 29 -11z m1007 -132 c0 -5 13 -22 30 -38 32 -31 38 -58 16 -71
-7 -4 -16 -34 -20 -65 -6 -54 -5 -58 14 -58 16 0 20 -7 20 -35 0 -19 4 -35 9
-35 5 0 13 -10 16 -22 11 -40 39 -88 51 -88 7 0 14 -6 17 -13 6 -15 84 -43 94
-34 3 4 -2 16 -12 27 -19 22 -14 50 10 50 9 0 27 -7 40 -16 13 -8 36 -14 52
-12 22 2 29 9 31 30 2 18 11 28 28 32 18 5 24 12 20 22 -7 19 42 40 58 24 8
-8 4 -12 -12 -16 -26 -7 -26 -8 -10 -34 10 -16 10 -24 0 -40 -11 -18 -10 -20
14 -20 18 0 25 5 23 18 -4 27 23 73 40 70 8 -2 18 -14 21 -28 3 -14 14 -27 25
-29 25 -4 54 -41 55 -68 0 -12 14 -32 31 -46 l32 -25 -23 -12 c-18 -10 -21
-18 -17 -46 4 -25 2 -34 -9 -34 -10 0 -14 13 -14 50 0 39 -4 52 -20 60 -11 6
-20 18 -20 27 0 20 -68 85 -81 78 -12 -8 -12 -35 1 -35 13 0 63 -80 55 -88 -4
-4 -11 1 -17 11 -7 13 -17 17 -33 13 -18 -5 -28 1 -46 28 l-23 34 -24 -25
c-19 -21 -21 -27 -10 -40 19 -24 19 -132 0 -165 -9 -16 -21 -28 -27 -28 -6 0
-28 -9 -49 -20 -60 -30 -137 -10 -103 28 9 10 14 22 10 25 -13 13 -23 7 -23
-14 0 -19 -4 -20 -57 -16 -80 7 -115 17 -136 38 -14 15 -23 16 -43 9 -23 -9
-30 -4 -79 48 -30 31 -54 64 -55 73 0 9 -7 19 -15 23 -11 4 -15 20 -15 56 0
43 -3 50 -20 50 -11 0 -28 9 -37 20 -10 11 -27 20 -39 20 -12 0 -24 7 -28 15
-3 10 -19 15 -45 15 -25 0 -41 5 -45 15 -4 11 -21 15 -60 15 -39 0 -55 4 -60
15 -3 8 -17 15 -31 15 -21 0 -25 5 -25 29 0 16 6 31 15 35 8 3 15 15 15 26 0
27 34 60 63 60 13 0 30 -12 42 -30 14 -21 28 -30 48 -30 17 0 27 -5 27 -15 0
-10 10 -15 30 -15 20 0 30 -5 30 -15 0 -9 9 -15 25 -15 15 0 38 -14 60 -35 28
-29 35 -43 35 -76 0 -33 3 -40 18 -37 9 2 18 10 18 18 1 8 2 21 3 28 2 22 21
3 21 -21 0 -13 19 -40 45 -65 25 -24 45 -48 45 -53 0 -5 11 -9 25 -9 16 0 28
-7 32 -17 13 -42 39 -93 45 -93 4 0 19 -11 34 -25 20 -19 38 -25 70 -25 24 0
44 4 44 10 0 5 32 10 72 12 l72 3 2 50 c2 55 -5 65 -52 65 -19 0 -34 6 -38 15
-8 22 -23 18 -29 -6 -5 -17 -11 -20 -34 -16 -70 14 -89 21 -101 38 -10 14 -20
17 -44 12 -28 -6 -31 -4 -26 15 5 18 2 20 -21 16 -21 -4 -36 2 -64 27 -20 18
-37 42 -37 53 0 12 -9 27 -20 34 -14 8 -20 23 -20 46 0 21 -6 36 -15 40 -10 4
-15 20 -15 51 0 42 5 50 60 107 33 33 60 65 60 70 0 4 7 8 15 8 8 0 15 -4 15
-8z m-540 -76 c0 -28 -14 -56 -26 -56 -9 0 -14 -11 -14 -28 0 -16 -8 -32 -19
-39 -16 -10 -22 -8 -37 8 -9 10 -25 19 -35 19 -28 0 -31 17 -4 24 14 4 25 11
25 16 0 6 5 10 11 10 17 0 48 43 49 68 0 22 1 22 25 6 14 -9 25 -21 25 -28z
m120 29 c0 -8 -4 -15 -10 -15 -5 0 -10 7 -10 15 0 8 5 15 10 15 6 0 10 -7 10
-15z m-572 -22 c2 -12 14 -28 26 -37 13 -8 26 -27 29 -43 11 -48 18 -53 62
-42 48 12 50 12 100 3 22 -4 46 -13 53 -21 7 -7 19 -13 25 -13 7 -1 21 -13 32
-27 11 -14 37 -45 57 -68 21 -23 35 -45 31 -48 -13 -14 -100 -7 -113 8 -7 9
-21 13 -31 10 -12 -4 -21 -1 -25 9 -6 15 -54 23 -54 10 0 -4 11 -17 25 -30 23
-21 34 -54 19 -54 -8 0 -88 71 -92 81 -2 4 6 10 17 14 31 10 25 25 -9 25 -20
0 -30 -5 -30 -15 0 -25 -74 -20 -92 6 l-14 22 -27 -25 c-15 -14 -27 -33 -27
-42 0 -22 -32 -20 -58 4 -26 25 -27 41 -6 81 15 30 16 31 75 24 50 -6 59 -5
59 9 0 9 -5 16 -10 16 -6 0 -25 16 -43 35 -17 19 -36 35 -42 35 -5 0 -18 12
-28 25 -17 23 -17 26 -1 50 14 21 24 25 53 23 28 -2 37 -8 39 -25z m1790 -113
c-12 -19 -28 -27 -28 -14 0 6 30 33 38 34 1 0 -3 -9 -10 -20z m32 -80 c0 -31
-6 -36 -28 -21 -12 7 -12 12 -1 30 19 29 29 26 29 -9z m-470 -30 c-20 -13 -47
-13 -55 0 -4 6 9 10 32 10 28 0 34 -3 23 -10z m-1460 -80 c14 -14 18 -27 14
-50 -7 -33 -14 -36 -32 -18 -9 9 -12 8 -12 -4 0 -9 5 -20 10 -23 16 -10 12
-65 -5 -65 -8 0 -15 -9 -15 -19 0 -11 -4 -23 -10 -26 -6 -3 -10 4 -10 18 0 14
-7 30 -15 37 -19 16 -19 23 4 70 15 32 16 40 5 44 -17 7 -18 43 -1 49 25 11
48 6 67 -13z m204 5 c3 -8 15 -15 27 -15 11 0 29 -10 39 -22 16 -20 18 -34 13
-91 -5 -52 -3 -71 7 -77 8 -5 14 -18 15 -30 1 -13 9 -27 18 -32 10 -5 17 -18
17 -28 0 -16 -7 -20 -35 -20 -22 0 -38 -6 -41 -15 -4 -8 -16 -15 -28 -15 -12
0 -33 -13 -46 -30 -19 -22 -33 -29 -62 -30 -23 0 -40 -6 -46 -16 -6 -10 -20
-14 -43 -12 -29 3 -34 7 -37 33 -2 16 -7 32 -12 35 -13 8 -15 89 -2 102 7 7
12 31 12 55 0 24 5 43 10 43 6 0 10 11 10 25 0 14 7 28 15 31 8 4 15 15 15 26
0 11 14 38 31 59 27 35 36 39 74 39 29 0 45 -5 49 -15z m386 -55 c9 -17 21
-20 80 -20 56 0 70 -3 70 -15 0 -11 11 -15 39 -15 32 0 47 -7 80 -39 44 -42
48 -51 29 -51 -22 -1 -58 -37 -58 -59 0 -12 -7 -24 -15 -27 -8 -4 -15 -15 -15
-26 0 -28 -40 -68 -67 -68 -14 0 -23 -6 -23 -15 0 -9 -9 -15 -25 -15 -14 0
-28 7 -31 15 -5 11 -21 15 -60 15 -39 0 -56 4 -60 15 -4 8 -17 15 -30 15 -14
0 -27 7 -30 15 -4 8 -16 15 -28 15 -11 0 -34 14 -50 30 -16 17 -33 30 -38 30
-4 0 -8 14 -8 30 0 20 -5 30 -16 30 -12 0 -14 10 -12 47 l3 47 39 2 c30 1 40
-3 44 -18 4 -15 15 -18 78 -18 72 0 74 1 74 25 0 14 -8 29 -20 35 -11 6 -17
16 -14 25 9 22 51 18 64 -5z m640 -100 c25 -25 25 -39 3 -56 -27 -20 -43 -17
-43 10 0 13 -7 29 -15 36 -8 7 -12 16 -9 21 9 16 43 10 64 -11z m379 -20 c16
0 51 -33 51 -48 0 -5 -22 -9 -49 -10 l-49 -1 -4 42 c-6 53 1 67 20 39 8 -12
22 -22 31 -22z m-653 -45 c20 -19 25 -31 21 -52 -5 -28 3 -41 47 -81 11 -9 35
-32 53 -49 19 -19 44 -33 58 -33 13 0 25 -5 27 -12 3 -7 20 -11 45 -10 23 2
44 -2 48 -8 10 -16 -14 -40 -39 -40 -12 0 -26 -4 -31 -9 -6 -5 -45 -6 -88 -4
-72 5 -78 7 -73 25 4 18 1 19 -30 14 -27 -6 -34 -4 -34 9 0 8 -4 15 -9 15 -5
0 -32 21 -59 48 -43 39 -51 52 -48 77 2 18 10 31 20 33 10 2 16 14 16 33 0 16
5 29 10 29 6 0 10 6 10 14 0 8 6 17 13 19 6 3 13 6 14 6 1 1 14 -10 29 -24z
m704 -90 c0 -14 -4 -25 -10 -25 -5 0 -10 11 -10 25 0 14 5 25 10 25 6 0 10
-11 10 -25z m-46 -35 c20 0 20 0 0 -39 -12 -23 -22 -31 -37 -29 -27 4 -36 -31
-13 -48 14 -10 16 -27 14 -95 -2 -49 -7 -83 -13 -82 -5 1 -14 38 -19 83 -7 66
-12 80 -26 80 -10 0 -21 -7 -24 -16 -4 -11 -14 -15 -30 -12 -17 4 -26 0 -29
-13 -3 -10 -16 -19 -33 -21 -22 -2 -28 -8 -29 -31 -1 -32 -20 -48 -50 -45 -16
2 -19 9 -17 34 2 22 -2 33 -14 38 -13 5 -15 14 -10 38 5 27 2 36 -24 60 -17
15 -28 32 -25 38 10 15 22 12 44 -12 17 -17 23 -19 36 -8 12 10 25 10 61 1 47
-12 103 -8 142 11 18 9 22 20 22 54 0 48 17 61 42 33 9 -10 23 -19 32 -19z
m-487 16 c4 -8 19 -16 33 -18 20 -2 26 -9 28 -37 4 -41 -14 -65 -29 -38 -6 9
-17 17 -26 17 -14 0 -93 71 -93 84 0 13 79 6 87 -8z m-822 -36 c-3 -5 -13 -10
-21 -10 -8 0 -14 5 -14 10 0 6 9 10 21 10 11 0 17 -4 14 -10z m1185 -15 c0 -8
-4 -15 -10 -15 -5 0 -10 7 -10 15 0 8 5 15 10 15 6 0 10 -7 10 -15z m-660 -3
c0 -15 130 -142 144 -142 8 0 21 -7 29 -14 9 -9 39 -16 77 -18 73 -3 97 -23
67 -56 -14 -16 -16 -36 -12 -150 l5 -132 -23 0 c-13 0 -27 -4 -32 -9 -20 -18
-62 -21 -75 -6 -7 8 -23 15 -35 15 -13 0 -25 7 -29 15 -3 8 -14 15 -25 15 -13
0 -26 12 -37 35 -21 46 -54 49 -54 5 0 -26 -4 -30 -28 -30 -15 0 -33 -5 -39
-11 -6 -6 -54 -13 -107 -15 -82 -4 -96 -2 -105 13 -7 13 -31 19 -108 25 -228
19 -256 23 -261 36 -2 8 8 12 31 12 19 0 40 7 47 15 7 8 27 15 45 15 18 0 38
7 45 16 8 8 25 14 39 14 43 -3 51 -1 51 15 0 22 108 22 116 0 4 -8 13 -15 21
-15 13 0 15 -9 10 -45 -6 -40 -5 -45 13 -45 11 0 20 -4 20 -10 0 -5 8 -10 18
-10 16 1 16 1 0 14 -11 8 -18 27 -18 48 0 25 -7 40 -30 58 -42 36 -38 50 15
50 33 0 45 4 45 15 0 10 10 15 28 15 15 0 33 5 39 11 8 8 13 8 17 0 4 -6 17
-11 29 -11 28 0 67 -41 67 -69 0 -14 6 -21 20 -21 15 0 20 -7 20 -25 0 -26 15
-34 23 -12 3 9 9 7 24 -6 11 -9 29 -17 40 -17 12 0 23 -7 27 -15 3 -8 16 -15
29 -15 27 0 43 -15 48 -44 6 -30 26 -30 32 1 4 18 1 32 -9 39 -8 6 -14 21 -14
33 0 12 -7 24 -15 27 -8 4 -15 17 -15 30 0 29 -32 64 -59 64 -24 0 -121 97
-121 122 0 10 -7 21 -15 24 -8 4 -15 17 -15 30 0 14 -7 27 -15 30 -15 6 -22
74 -8 87 9 10 23 9 23 -1z m-70 -47 c0 -17 -2 -18 -24 -9 -23 9 -20 24 4 24
11 0 20 -7 20 -15z m-613 -27 c30 -28 30 -74 1 -99 -28 -22 -51 -24 -68 -4 -7
8 -21 15 -31 15 -11 0 -19 5 -19 10 0 6 5 10 10 10 6 0 10 7 10 15 0 8 -4 15
-10 15 -5 0 -10 7 -10 15 0 8 9 15 20 15 11 0 23 7 26 15 9 22 44 18 71 -7z
m1501 -12 c24 -35 23 -44 -13 -106 -14 -24 -15 -22 -15 38 0 55 -3 65 -20 69
-21 5 -25 15 -13 26 15 16 39 5 61 -27z m94 19 c24 -6 26 -9 17 -33 -7 -18 -7
-28 0 -30 25 -8 10 -32 -19 -32 -28 0 -30 3 -30 35 0 24 -6 37 -20 45 -24 13
-17 33 8 26 10 -3 29 -8 44 -11z m-1208 -7 c-4 -7 -20 -29 -36 -49 -15 -20
-28 -44 -28 -53 0 -10 -9 -16 -25 -16 -40 0 -31 34 21 85 44 42 85 62 68 33z
m176 7 c0 -2 -20 -24 -45 -48 -34 -34 -45 -52 -45 -75 0 -21 -9 -38 -30 -55
-16 -14 -30 -31 -30 -37 0 -6 -12 -10 -27 -8 -24 3 -29 8 -31 37 -2 19 0 37 5
40 5 3 19 26 32 50 25 48 57 80 83 81 9 0 20 5 23 10 6 10 65 15 65 5z m-701
-45 c6 0 11 -7 11 -15 0 -8 -7 -15 -15 -15 -8 0 -15 -4 -15 -10 0 -5 -11 -10
-25 -10 -22 0 -25 4 -25 34 0 38 26 54 46 29 6 -7 16 -13 23 -13z m731 -30 c0
-39 -23 -75 -41 -65 -14 9 -11 34 9 76 21 45 32 41 32 -11z m1160 39 c-62 -14
-73 -14 -77 -1 -3 9 11 12 54 11 53 -1 55 -2 23 -10z m-620 -84 c0 -15 -11
-19 -40 -15 -20 3 -23 7 -15 19 10 17 55 13 55 -4z m238 -43 c2 -20 9 -32 18
-32 9 0 14 -11 14 -30 0 -40 -26 -40 -35 0 l-7 30 -38 -30 c-21 -16 -42 -30
-48 -30 -5 0 -16 -9 -23 -19 -11 -15 -30 -20 -92 -24 -75 -4 -79 -3 -87 19 -5
12 -16 26 -25 32 -11 6 -16 19 -13 42 2 27 8 35 31 41 21 6 29 3 37 -10 8 -16
17 -17 60 -10 30 5 62 4 79 -2 30 -11 37 -7 91 46 21 22 35 13 38 -23z m2
-137 c0 -8 -7 -15 -15 -15 -8 0 -15 7 -15 15 0 8 7 15 15 15 8 0 15 -7 15 -15z
m-330 -95 c0 -5 18 -10 40 -10 22 0 40 -4 40 -9 0 -10 -101 -61 -119 -61 -16
0 -13 20 4 26 9 4 15 19 15 35 0 16 5 29 10 29 6 0 10 -4 10 -10z m-655 -70
c10 -11 13 -20 7 -20 -18 0 -62 22 -62 32 0 16 37 8 55 -12z m300 0 c20 -11
42 -20 49 -20 7 0 19 -7 26 -15 8 -9 29 -15 56 -15 39 0 72 -19 47 -27 -6 -2
-21 -13 -34 -24 -25 -21 -113 -27 -125 -8 -3 6 -16 8 -27 5 -31 -8 -64 3 -70
23 -3 14 -12 17 -36 13 -22 -3 -33 0 -37 12 -4 12 -20 16 -58 17 -28 0 -44 3
-36 6 8 4 20 12 28 19 9 10 31 11 77 7 54 -5 66 -3 71 11 8 21 26 20 69 -4z"/>
<path d="M1293 1173 c-24 -16 -30 -33 -13 -33 14 0 51 38 42 44 -4 2 -17 -3
-29 -11z"/>
<path d="M1734 2345 c-4 -8 -17 -15 -30 -15 -37 0 -64 -34 -64 -80 0 -29 -4
-40 -15 -40 -11 0 -15 -12 -15 -45 0 -33 -4 -45 -15 -45 -10 0 -15 -10 -15
-27 0 -20 -9 -34 -30 -48 -20 -13 -30 -28 -30 -45 0 -17 -10 -32 -30 -45 -20
-13 -30 -28 -30 -45 0 -17 -10 -32 -30 -45 -36 -24 -40 -59 -8 -76 l22 -12
-24 -19 -23 -19 21 -15 c12 -8 22 -22 22 -30 0 -8 4 -14 9 -14 5 0 9 -28 8
-61 0 -47 4 -64 16 -71 10 -5 17 -18 17 -29 0 -11 11 -30 24 -42 13 -12 43
-39 66 -61 31 -28 45 -35 53 -27 16 16 37 14 37 -4 0 -8 -7 -15 -15 -15 -21 0
-19 -16 6 -41 17 -17 26 -20 39 -11 21 13 30 6 30 -20 0 -16 5 -19 29 -13 24
5 30 2 36 -14 3 -11 18 -29 31 -40 14 -11 27 -32 28 -46 6 -47 16 -39 16 13 0
28 -4 54 -10 57 -5 3 -10 17 -10 30 0 12 -7 25 -15 29 -8 3 -15 13 -15 22 0
24 -41 64 -66 64 -12 0 -25 7 -28 16 -4 10 -12 14 -22 10 -9 -4 -32 3 -51 14
-19 11 -40 20 -48 20 -8 0 -18 6 -22 14 -4 8 -19 16 -33 18 -18 2 -26 10 -28
28 -2 14 -10 29 -18 33 -18 10 -18 46 1 53 21 8 29 42 14 60 -11 13 -9 19 10
33 19 14 22 24 17 47 -6 26 0 34 44 74 31 27 50 53 50 66 0 12 7 24 15 28 8 3
15 16 15 30 0 13 7 26 15 30 8 3 15 14 15 25 0 11 16 36 35 56 35 34 37 35
119 35 65 0 85 -3 90 -15 3 -8 16 -15 30 -15 13 0 26 -7 30 -15 3 -10 19 -15
45 -15 25 0 41 -5 45 -15 3 -9 19 -15 41 -15 22 0 38 6 41 15 7 16 64 21 64 6
0 -5 17 -27 39 -50 l38 -40 22 25 c25 29 29 99 6 108 -8 3 -15 16 -15 30 0 13
-7 26 -15 30 -8 3 -15 16 -15 30 0 13 -7 26 -15 30 -8 3 -15 15 -15 26 0 26
-34 60 -60 60 -11 0 -23 7 -26 15 -5 11 -24 15 -80 15 -59 0 -74 3 -74 15 0
12 -13 15 -59 15 -43 0 -60 4 -65 15 -4 12 -24 15 -86 15 -62 0 -82 -3 -86
-15z m164 -115 c29 -11 67 -20 85 -20 38 0 73 -22 63 -38 -9 -15 -43 -16 -48
-2 -2 6 -50 13 -108 16 -58 3 -109 9 -113 14 -11 10 31 50 52 50 9 0 40 -9 69
-20z m309 -36 c3 -8 17 -20 30 -25 15 -6 23 -15 20 -23 -3 -8 1 -22 8 -33 8
-10 15 -26 15 -35 0 -20 -22 -36 -28 -20 -2 7 -17 12 -33 12 -31 0 -109 45
-109 63 0 12 70 76 83 77 4 0 10 -7 14 -16z"/>
<path d="M1946 1783 c-12 -12 -6 -44 9 -49 10 -4 15 -20 15 -45 0 -26 5 -42
15 -45 20 -8 22 -124 3 -124 -15 -1 -48 -67 -48 -96 0 -11 -7 -29 -15 -40 -8
-10 -15 -28 -15 -40 0 -11 -7 -29 -15 -40 -15 -20 -20 -54 -7 -54 13 1 52 38
52 50 0 7 14 29 30 50 17 21 30 46 30 57 0 10 9 24 20 31 24 14 26 40 5 48
-20 8 -19 34 1 34 14 0 16 8 10 57 -4 31 -10 61 -15 67 -5 6 -12 26 -16 44 -4
18 -13 36 -21 39 -8 3 -14 16 -14 28 0 25 -12 39 -24 28z"/>
<path d="M1480 1362 c0 -5 9 -17 20 -27 11 -10 20 -26 20 -35 0 -17 30 -50 45
-50 4 0 13 -7 20 -17 7 -9 19 -14 29 -10 23 9 20 27 -4 27 -26 0 -60 34 -60
60 0 11 -7 23 -15 26 -8 4 -15 12 -15 20 0 8 -9 14 -20 14 -11 0 -20 -4 -20
-8z"/>
<path d="M2026 1045 c-10 -27 -7 -35 15 -35 15 0 20 5 17 22 -4 27 -23 35 -32
13z"/>
<path d="M442 378 c2 -13 8 -23 13 -23 6 0 11 10 13 23 2 15 -2 22 -13 22 -11
0 -15 -7 -13 -22z"/>
</g>
</svg>
