<?xml version="1.0" standalone="no"?>
<!DOCTYPE svg PUBLIC "-//W3C//DTD SVG 20010904//EN"
 "http://www.w3.org/TR/2001/REC-SVG-20010904/DTD/svg10.dtd">
<svg version="1.0" xmlns="http://www.w3.org/2000/svg"
 width="240.000000pt" height="240.000000pt" viewBox="0 0 240.000000 240.000000"
 preserveAspectRatio="xMidYMid meet">
<metadata>
Created by potrace 1.10, written by Peter Selinger 2001-2011
</metadata>
<g transform="translate(0.000000,240.000000) scale(0.100000,-0.100000)"
fill="#666666" stroke="none">
<path d="M105 2361 c-29 -6 -30 -8 -33 -72 -2 -50 1 -69 13 -79 8 -7 15 -20
15 -30 0 -9 19 -34 42 -55 33 -31 48 -38 75 -37 22 2 35 -2 39 -13 4 -10 20
-15 50 -15 32 0 44 -4 44 -15 0 -11 12 -15 46 -15 59 0 55 -24 -4 -28 -32 -2
-42 0 -42 12 0 12 -21 15 -111 18 -61 2 -117 -1 -125 -5 -20 -11 -19 -100 1
-117 8 -7 15 -20 15 -30 0 -10 7 -23 15 -30 8 -7 15 -19 15 -28 0 -20 44 -60
71 -64 29 -4 35 -24 9 -31 -24 -6 -28 -45 -5 -53 8 -4 15 -17 15 -30 0 -14 7
-27 15 -30 8 -4 15 -16 15 -28 0 -11 16 -37 35 -56 19 -19 35 -38 35 -42 0 -4
18 -8 40 -8 29 0 42 5 50 20 10 18 19 21 68 18 l57 -3 -3 -41 c-3 -30 1 -43
12 -47 9 -4 16 -18 16 -32 0 -16 6 -25 15 -25 8 0 15 -3 15 -7 0 -13 -104
-103 -118 -103 -20 0 -72 -52 -72 -72 0 -10 10 -22 21 -29 21 -11 19 -13 -30
-58 -54 -49 -64 -79 -31 -88 11 -3 20 -12 20 -19 0 -19 -49 -18 -56 1 -4 8
-15 15 -26 15 -27 0 -68 40 -68 66 0 12 -7 24 -15 28 -8 3 -15 16 -15 30 0 13
-7 26 -15 30 -10 3 -15 19 -15 45 0 25 -5 41 -15 45 -12 4 -15 24 -15 91 0 69
3 85 15 85 11 0 15 12 15 45 0 40 -3 45 -26 51 -20 5 -29 1 -42 -17 -8 -12
-25 -32 -36 -43 -12 -12 -19 -29 -18 -38 2 -10 -4 -21 -12 -24 -9 -3 -16 -17
-16 -30 0 -14 -7 -27 -15 -30 -10 -4 -15 -20 -15 -50 0 -24 -4 -44 -10 -44 -6
0 -10 -62 -10 -165 0 -103 4 -165 10 -165 6 0 10 -20 10 -44 0 -31 5 -46 16
-50 10 -4 13 -13 9 -25 -4 -14 0 -23 15 -31 13 -7 19 -17 16 -27 -8 -20 192
-218 217 -214 9 1 20 -5 23 -13 3 -9 17 -16 30 -16 14 0 27 -7 30 -15 4 -10
20 -15 50 -15 24 0 44 -3 44 -6 0 -4 -30 -35 -66 -69 -37 -35 -64 -68 -60 -74
4 -5 -2 -16 -14 -23 -25 -16 -29 -92 -5 -102 8 -3 15 -14 15 -23 0 -10 9 -26
20 -36 12 -10 18 -22 15 -27 -4 -6 7 -24 24 -40 23 -24 38 -30 72 -30 26 0 50
7 62 17 16 15 35 18 112 15 75 -2 94 1 99 13 3 9 18 15 41 15 28 0 42 7 62 30
13 16 33 30 43 30 10 0 32 16 48 36 17 20 35 33 41 30 6 -4 25 6 41 23 36 36
41 84 10 101 -14 8 -19 17 -15 30 4 13 -1 22 -15 30 -25 13 -25 38 -1 67 16
19 29 23 74 23 40 0 56 4 61 15 3 8 16 15 30 15 13 0 26 7 30 15 3 8 16 15 30
15 13 0 26 7 30 15 3 8 16 15 30 15 13 0 26 7 30 15 3 10 19 15 45 15 25 0 41
5 45 15 8 22 44 18 56 -6 10 -18 17 -20 61 -14 40 6 50 4 55 -9 5 -12 20 -16
65 -16 52 0 59 -2 59 -20 0 -16 7 -20 30 -20 23 0 30 -4 30 -20 0 -10 -7 -23
-17 -28 -22 -13 -22 -71 2 -88 26 -19 12 -44 -25 -44 -24 0 -30 4 -30 21 0 16
-4 19 -22 13 -30 -9 -35 -14 -21 -22 7 -5 -1 -21 -23 -46 -34 -39 -34 -39 -34
-13 0 17 5 27 14 27 27 0 29 22 5 41 -13 10 -21 21 -17 25 4 4 14 2 21 -5 12
-9 16 -3 21 39 4 32 14 57 28 70 18 16 19 23 9 33 -10 9 -15 8 -25 -6 -7 -9
-23 -17 -35 -17 -12 0 -39 -18 -61 -41 -46 -48 -54 -91 -19 -110 19 -10 21
-17 16 -59 -6 -50 4 -70 35 -70 9 0 22 9 28 20 6 12 21 20 35 20 16 0 25 6 25
15 0 8 7 15 15 15 8 0 15 -4 15 -9 0 -5 17 -27 38 -48 37 -39 38 -40 99 -35
55 4 62 2 73 -18 10 -18 18 -21 46 -17 27 5 34 2 39 -14 5 -16 16 -19 75 -19
55 0 72 4 82 18 10 14 27 18 83 17 66 0 70 1 73 23 3 17 -11 37 -48 75 -39 40
-50 57 -46 76 6 37 -64 101 -109 101 -24 0 -38 6 -45 21 -7 12 -17 18 -27 15
-19 -8 -63 32 -63 57 0 10 7 20 15 23 8 4 15 16 15 28 0 12 15 33 35 49 27 22
35 35 35 61 0 19 -7 39 -15 46 -8 7 -15 21 -15 31 0 17 -39 58 -127 135 -18
16 -33 32 -33 36 0 5 20 8 44 8 30 0 46 5 50 15 4 11 17 15 42 13 25 -1 39 3
45 15 7 11 23 17 48 17 27 0 41 5 45 16 5 14 16 16 54 11 40 -5 51 -2 75 18
32 29 34 41 6 50 -13 5 -18 12 -15 22 4 10 -8 29 -36 54 -24 21 -46 39 -50 39
-19 0 -5 -31 24 -54 28 -21 30 -26 15 -32 -9 -3 -17 -12 -17 -20 0 -8 -7 -14
-15 -14 -8 0 -15 6 -15 14 0 8 -5 18 -10 21 -17 11 -40 -15 -40 -45 0 -20 -6
-29 -22 -34 -35 -9 -38 -8 -38 14 0 10 -10 25 -22 31 -21 11 -21 12 -2 25 43
31 79 61 111 92 26 25 42 32 72 32 26 0 41 5 45 16 4 9 13 13 24 10 12 -4 26
3 40 19 12 14 22 28 22 31 0 14 -47 43 -62 38 -37 -11 -27 19 21 65 28 27 51
54 51 60 0 6 -16 25 -35 42 -37 34 -37 49 0 49 12 0 25 7 29 15 3 8 12 15 21
15 8 0 15 7 15 15 0 8 -6 15 -14 15 -7 0 -19 7 -26 15 -7 8 -20 15 -29 15 -20
0 -121 -94 -121 -112 0 -7 9 -28 20 -46 21 -34 40 -35 40 -2 0 28 16 33 40 13
27 -23 25 -43 -7 -70 -27 -24 -36 -26 -93 -23 -45 2 -160 39 -160 51 0 5 -9 9
-20 9 -10 0 -24 9 -30 20 -14 27 -60 27 -60 1 0 -11 5 -23 10 -26 6 -3 10 -15
10 -26 0 -11 7 -22 15 -25 8 -4 15 -16 15 -29 0 -12 7 -28 15 -35 8 -7 12 -16
9 -21 -10 -18 -43 -9 -63 18 -20 24 -23 25 -46 13 -31 -17 -27 -34 8 -38 14
-2 31 -10 37 -18 15 -17 66 -19 77 -1 16 24 53 39 69 26 20 -17 17 -28 -11
-39 -14 -5 -25 -16 -25 -24 0 -8 -8 -17 -17 -20 -10 -2 0 -2 22 1 22 3 49 14
61 24 21 19 64 26 64 10 0 -19 -62 -71 -85 -71 -17 0 -25 -6 -25 -17 0 -13 -3
-14 -12 -5 -7 7 -24 12 -39 12 -15 0 -32 7 -39 15 -7 8 -21 15 -31 15 -21 0
-109 87 -109 107 0 7 8 17 18 22 9 6 15 11 12 12 -21 4 -71 10 -103 12 -24 1
-42 8 -48 19 -8 14 -19 16 -59 11 -40 -5 -51 -3 -56 11 -8 22 -184 24 -184 2
0 -9 -15 -17 -39 -21 -32 -5 -46 -2 -72 17 -103 74 -105 101 -9 108 46 4 78
13 112 33 57 33 69 34 105 2 22 -20 25 -26 14 -34 -10 -6 -2 -11 28 -16 23 -4
45 -13 48 -21 7 -20 53 -18 53 2 0 18 -40 64 -56 64 -6 0 -40 28 -75 61 -86
83 -94 89 -108 89 -13 0 -32 14 -59 43 -9 9 -23 17 -30 17 -7 0 -20 7 -28 15
-9 8 -24 15 -34 15 -10 0 -22 5 -25 10 -3 6 -19 10 -36 10 -22 0 -29 5 -29 20
0 18 -7 20 -60 20 l-60 0 0 33 c0 38 -15 57 -46 57 -12 0 -24 7 -28 15 -3 8
-11 15 -18 15 -11 0 -66 49 -57 51 2 0 43 3 92 6 75 4 87 3 87 -11 0 -13 11
-16 59 -16 43 0 60 -4 65 -15 3 -8 17 -15 31 -15 30 0 34 -25 5 -33 -14 -3
-20 -14 -20 -31 0 -19 -5 -26 -19 -26 -11 0 -23 -4 -26 -10 -4 -6 13 -10 45
-10 38 0 54 -5 67 -20 13 -15 30 -20 70 -20 40 0 53 -4 53 -15 0 -12 13 -15
55 -15 40 0 57 -4 61 -15 5 -11 21 -15 60 -15 42 0 55 -4 64 -19 8 -16 17 -19
44 -14 28 4 36 1 46 -16 9 -18 17 -21 45 -15 27 5 36 2 41 -10 3 -9 17 -16 30
-16 14 0 27 -7 30 -15 4 -9 19 -15 35 -15 36 0 38 -17 4 -30 -32 -12 -32 -30
0 -30 14 0 25 5 25 10 0 16 56 11 89 -7 16 -10 33 -14 38 -10 12 12 -13 42
-33 40 -10 -1 -24 7 -32 18 -9 13 -20 18 -32 14 -10 -3 -22 0 -27 8 -12 20
-81 59 -93 52 -5 -3 -17 3 -27 15 -12 13 -30 20 -54 20 -25 0 -39 5 -43 16 -5
12 -14 15 -36 11 -20 -5 -34 -1 -46 11 -11 11 -34 17 -62 17 -31 0 -47 6 -53
18 -8 13 -23 17 -63 17 -37 0 -58 5 -67 16 -10 13 -24 15 -65 10 -50 -6 -51
-5 -70 29 -18 34 -18 35 4 55 12 11 22 25 22 31 0 15 83 -2 106 -22 11 -11 32
-19 47 -19 14 0 37 -11 52 -24 18 -17 42 -25 84 -30 38 -4 61 -12 65 -21 4
-10 21 -15 54 -15 32 0 54 -5 62 -15 7 -8 27 -15 45 -15 18 0 38 -7 45 -15 7
-8 27 -15 45 -15 18 0 38 -7 45 -15 7 -8 25 -15 40 -15 15 0 33 -7 40 -15 7
-8 23 -15 35 -15 12 0 28 -7 35 -15 7 -8 20 -15 30 -15 10 0 23 -7 30 -15 7
-8 23 -15 36 -15 13 0 24 -4 24 -10 0 -5 14 -10 30 -10 20 0 30 5 30 15 0 9
-9 15 -25 15 -14 0 -28 7 -31 15 -4 8 -17 15 -30 15 -14 0 -27 7 -30 15 -4 8
-17 15 -30 15 -14 0 -27 7 -30 15 -4 8 -17 15 -30 15 -14 0 -27 7 -30 15 -4
10 -20 15 -45 15 -25 0 -41 6 -48 17 -6 12 -20 16 -45 15 -26 -2 -38 2 -46 17
-8 16 -17 19 -44 14 -27 -4 -36 -1 -45 14 -9 17 -18 19 -60 15 -41 -4 -52 -1
-57 12 -4 11 -18 16 -45 16 -27 0 -41 5 -49 19 -6 13 -17 17 -30 14 -12 -3
-22 1 -26 11 -3 9 -17 16 -30 16 -14 0 -27 7 -30 15 -4 8 -15 15 -26 15 -25 0
-158 131 -158 156 -1 11 -14 30 -30 44 -17 13 -30 32 -30 42 0 24 -35 58 -60
58 -25 0 -120 -95 -120 -121 0 -11 -7 -22 -15 -25 -9 -4 -15 -19 -15 -35 0
-18 -5 -29 -14 -29 -8 0 -16 -7 -20 -15 -3 -8 -17 -15 -31 -15 -16 0 -25 -6
-25 -15 0 -11 -11 -15 -40 -15 -27 0 -43 5 -46 15 -4 8 -17 15 -30 15 -13 0
-28 9 -34 19 -8 16 -17 19 -44 14 -28 -4 -36 -1 -46 16 -9 18 -17 21 -45 15
-28 -5 -35 -2 -45 16 -8 16 -19 21 -40 18 -17 -1 -36 5 -48 16 -12 10 -31 16
-45 14 -14 -1 -34 5 -46 16 -13 12 -30 17 -45 14 -17 -3 -31 1 -42 14 -12 12
-29 18 -52 16 -24 -2 -37 3 -44 15 -6 12 -16 16 -28 12 -13 -4 -22 1 -30 15
-11 21 -16 22 -65 11z m62 -51 c10 -11 25 -20 34 -20 9 0 22 -7 29 -15 7 -8
28 -15 47 -15 21 0 36 -6 39 -15 4 -10 20 -15 45 -15 26 0 42 -5 45 -15 4 -10
20 -15 44 -15 21 0 43 -7 50 -15 7 -8 27 -15 46 -15 23 0 37 -6 44 -20 8 -15
17 -18 41 -13 23 4 34 2 41 -10 6 -11 22 -17 47 -17 25 0 41 -5 45 -15 3 -8
16 -15 30 -15 13 0 26 -7 30 -15 3 -8 16 -15 29 -15 14 0 30 -7 37 -15 7 -8
20 -15 30 -15 10 0 23 -6 30 -14 6 -8 18 -12 26 -9 19 7 64 -37 64 -64 0 -17
-6 -23 -21 -23 -12 0 -28 -8 -34 -17 -13 -17 -14 -17 -32 0 -13 11 -36 17 -66
17 -37 0 -49 4 -58 21 -10 19 -17 21 -61 16 -38 -5 -50 -3 -55 8 -3 10 -19 15
-44 15 -26 0 -42 5 -45 15 -4 10 -20 15 -45 15 -26 0 -42 5 -45 15 -4 10 -20
15 -45 15 -29 0 -41 5 -50 21 -8 17 -17 20 -40 15 -21 -4 -34 0 -47 15 -13 13
-30 19 -51 17 -22 -2 -36 3 -42 15 -6 10 -22 17 -41 17 -34 0 -68 24 -68 48 0
9 -6 23 -14 31 -18 21 -27 96 -13 110 16 16 25 14 44 -9z m986 -44 c9 9 47
-16 47 -31 0 -8 7 -15 15 -15 8 0 15 -7 15 -16 0 -8 14 -29 30 -46 17 -16 30
-36 30 -44 0 -8 7 -14 16 -14 9 0 14 -6 12 -12 -7 -20 -80 -23 -90 -4 -5 9
-19 16 -31 16 -28 0 -87 58 -87 86 0 13 -7 27 -16 32 -19 10 -11 32 12 32 8 0
14 7 14 16 0 13 3 14 13 5 8 -6 16 -8 20 -5z m-73 -116 c5 0 10 -4 10 -10 0
-5 -14 -10 -32 -10 -25 0 -29 3 -20 12 7 7 12 21 13 33 0 19 1 19 9 -2 5 -13
14 -23 20 -23z m-717 -173 c14 -14 27 -16 72 -11 45 6 59 4 75 -11 14 -13 38
-19 80 -20 34 -1 66 -7 72 -13 7 -7 43 -12 85 -12 56 0 75 -4 79 -15 4 -8 17
-15 31 -15 15 0 23 -5 20 -12 -2 -8 -23 -13 -52 -13 -30 0 -50 -5 -52 -12 -3
-7 -14 -13 -25 -13 -11 0 -30 -8 -43 -19 -21 -16 -46 -18 -224 -20 -225 -2
-271 2 -271 29 0 10 -7 23 -15 30 -8 7 -15 19 -15 28 0 8 -6 23 -14 31 -16 18
-24 61 -14 76 3 6 48 10 100 10 75 0 96 -3 111 -18z m828 -127 l24 -19 -38 -1
c-24 0 -45 7 -59 20 l-22 20 36 0 c21 0 46 -8 59 -20z m-187 -41 c26 -17 46
-34 46 -39 0 -4 11 -18 25 -31 14 -14 25 -35 25 -51 0 -16 5 -28 11 -28 17 0
1 -151 -18 -172 -8 -9 -12 -21 -9 -27 4 -5 -8 -30 -26 -55 -24 -32 -40 -45
-58 -45 -30 0 -63 40 -58 71 4 32 -27 35 -57 6 -17 -16 -25 -34 -25 -60 0 -42
10 -48 64 -36 40 9 76 3 76 -13 0 -5 -7 -9 -15 -9 -8 0 -23 -9 -32 -20 -16
-19 -17 -19 -27 2 -16 31 -31 27 -34 -9 -3 -32 -5 -33 -48 -33 -35 0 -44 3
-44 18 0 9 -9 23 -20 30 -15 9 -18 19 -14 42 5 23 1 35 -17 55 -31 33 -46 31
-86 -7 l-33 -32 0 26 c0 15 -7 33 -15 42 -20 20 -19 24 7 28 18 2 23 10 24 39
2 30 -1 38 -18 42 -18 5 -19 11 -13 49 4 24 13 46 21 51 7 4 16 23 20 43 6 31
8 33 19 17 11 -14 16 -15 26 -6 10 10 9 16 -3 30 -15 17 -15 20 2 41 10 12 29
22 44 22 17 0 26 5 26 16 0 14 9 16 61 11 46 -4 62 -2 66 9 9 24 59 16 107
-17z m127 0 c9 -18 17 -20 52 -15 38 6 46 3 77 -26 19 -19 53 -42 75 -52 22
-10 47 -23 55 -28 8 -5 23 -11 33 -14 9 -4 17 -15 17 -27 0 -19 -4 -20 -121
-14 -116 7 -121 6 -126 -13 -8 -30 -28 -18 -28 15 -1 16 -6 30 -13 33 -7 2
-12 17 -12 33 0 16 -5 29 -11 29 -5 0 -15 13 -20 29 -6 16 -17 32 -25 35 -8 3
-14 12 -14 21 0 23 47 19 61 -6z m-483 -66 c2 -7 -3 -13 -12 -13 -12 0 -16
-11 -16 -45 0 -32 -4 -45 -14 -45 -9 0 -16 -12 -18 -27 -2 -22 -8 -28 -25 -26
-11 1 -27 -4 -33 -12 -7 -8 -29 -15 -50 -15 -24 0 -40 -5 -44 -15 -14 -37
-106 -6 -106 35 0 10 -7 23 -15 30 -8 7 -15 20 -15 29 0 9 -9 25 -21 34 -11
10 -19 26 -17 35 3 14 17 17 88 19 47 1 126 9 175 16 103 17 117 17 123 0z
m1652 -118 c0 -8 -6 -15 -14 -15 -8 0 -17 -7 -20 -16 -3 -8 -10 -12 -16 -9
-15 9 -12 25 5 25 8 0 15 7 15 15 0 8 7 15 15 15 8 0 15 -7 15 -15z m-1091
-158 c23 -31 79 -67 105 -67 13 0 48 -43 59 -72 11 -31 26 -19 25 18 -1 24 4
41 15 49 9 7 17 24 17 39 0 31 26 36 35 6 8 -24 21 -26 29 -4 5 13 10 13 36
-6 25 -18 30 -28 30 -61 0 -27 -6 -45 -20 -56 -11 -10 -20 -27 -20 -38 -1 -24
-46 -60 -55 -45 -4 6 0 22 9 35 9 13 16 31 16 40 0 22 -21 18 -27 -5 -3 -11
-9 -20 -14 -20 -9 0 -49 -36 -49 -45 0 -3 -9 -14 -20 -25 -20 -20 -70 -28 -70
-11 0 4 -27 35 -60 69 -33 33 -60 68 -60 79 -1 10 -14 29 -30 43 -37 30 -40
72 -8 94 29 21 29 21 57 -17z m868 -33 c-12 -13 -37 6 -37 28 l0 22 22 -21
c12 -13 19 -25 15 -29z m160 -45 c-4 -29 -1 -42 9 -46 22 -8 16 -23 -9 -23
-24 0 -53 35 -37 45 5 3 7 19 3 35 -5 26 -3 30 17 30 21 0 22 -4 17 -41z
m-112 21 c3 -5 15 -10 26 -10 10 0 19 -4 19 -10 0 -15 -39 -12 -56 4 -8 8 -14
17 -14 20 0 10 18 7 25 -4z m-341 -20 c14 -5 26 -16 26 -24 0 -9 9 -20 20 -26
12 -6 20 -21 20 -35 0 -21 5 -25 29 -25 16 0 31 -6 35 -15 3 -8 17 -15 31 -15
20 0 26 -4 23 -17 -4 -24 -48 -30 -60 -9 -5 9 -18 16 -28 16 -11 0 -24 9 -30
20 -16 29 -30 24 -30 -11 0 -29 -1 -30 -42 -27 -34 2 -44 7 -46 23 -2 11 -13
28 -25 37 l-22 17 23 30 c12 17 22 36 22 44 0 28 15 32 54 17z m-1660 -16 c12
-12 15 -27 10 -68 -5 -43 -3 -54 10 -59 11 -4 16 -19 16 -47 0 -27 5 -43 15
-46 8 -4 15 -17 15 -30 0 -14 7 -27 15 -30 8 -4 15 -15 15 -26 0 -26 73 -98
100 -98 11 0 23 -7 26 -15 4 -9 19 -15 40 -15 22 0 37 6 40 15 4 8 13 15 20
15 8 0 17 -7 20 -15 5 -11 24 -15 81 -15 l75 0 -6 -26 c-4 -15 -14 -33 -21
-41 -11 -10 -15 -38 -15 -99 0 -71 3 -87 20 -104 17 -17 19 -28 14 -58 -9 -53
-26 -62 -120 -62 -73 0 -82 2 -87 20 -4 16 -14 20 -45 20 -26 0 -42 5 -46 15
-3 8 -16 15 -30 15 -13 0 -26 7 -30 15 -3 8 -14 15 -24 15 -10 0 -27 9 -37 20
-10 11 -24 20 -32 20 -7 0 -13 7 -13 15 0 8 -7 15 -15 15 -10 0 -15 10 -15 30
0 20 -5 30 -15 30 -9 0 -15 9 -15 24 0 13 -7 26 -15 30 -9 3 -15 18 -15 40 0
25 -6 38 -20 46 -19 10 -20 20 -19 148 2 154 4 172 25 172 10 0 14 13 14 46 0
42 2 46 21 41 17 -5 20 -1 19 21 -3 48 -1 51 24 26z m1026 -51 c0 -14 6 -23
15 -23 8 0 15 -7 15 -15 0 -8 7 -15 15 -15 8 0 15 -4 15 -10 0 -11 36 -50 48
-50 4 -1 18 -14 32 -30 32 -40 67 -39 102 0 15 17 29 26 33 21 3 -5 -4 -19
-16 -30 -22 -20 -19 -41 7 -41 8 0 14 7 14 15 0 8 7 15 15 15 8 0 15 -7 15
-15 0 -8 7 -15 15 -15 20 0 19 27 -1 38 -11 6 -13 12 -6 16 6 3 13 2 17 -4 9
-15 42 -12 70 6 30 20 32 30 5 37 -24 6 -26 25 -4 34 10 4 22 0 28 -9 7 -9 23
-18 36 -20 38 -5 31 -32 -8 -36 -49 -5 -34 -26 21 -30 26 -2 47 -6 47 -9 0
-10 -42 -53 -52 -53 -5 0 -22 14 -37 31 -18 19 -31 27 -35 20 -4 -6 0 -14 8
-17 9 -3 16 -12 16 -20 0 -8 7 -14 15 -14 9 0 15 -9 15 -25 0 -30 32 -65 60
-65 11 0 23 -7 26 -15 4 -8 17 -15 30 -15 14 0 27 -7 30 -15 4 -10 20 -15 45
-15 24 0 41 -6 47 -16 5 -8 16 -16 25 -18 29 -4 117 -98 117 -123 0 -13 7 -26
15 -29 27 -11 18 -66 -15 -94 -17 -13 -30 -30 -30 -37 0 -7 -11 -13 -25 -13
-18 0 -25 -5 -25 -20 0 -11 5 -20 10 -20 6 0 10 -11 10 -24 0 -17 10 -31 34
-45 19 -12 37 -29 40 -37 3 -9 13 -14 20 -11 8 3 26 -4 40 -16 l25 -22 -23
-22 c-13 -13 -31 -23 -39 -23 -9 0 -20 -6 -24 -14 -4 -8 -24 -16 -43 -18 -22
-2 -38 -10 -45 -23 -24 -47 -47 -64 -79 -58 -17 3 -38 12 -47 19 -8 8 -21 14
-27 14 -7 0 -12 9 -12 20 0 29 26 24 52 -10 24 -33 36 -37 44 -15 4 9 -6 26
-25 42 -17 15 -31 36 -31 46 0 9 -7 20 -15 23 -10 4 -15 20 -15 45 0 26 5 42
15 45 8 4 15 17 15 30 0 15 6 24 15 24 13 0 15 -7 10 -34 -8 -42 1 -76 21 -76
8 0 14 -10 14 -22 0 -25 46 -75 58 -64 4 4 -1 13 -11 20 -9 7 -17 22 -17 33 0
10 -5 24 -12 31 -6 6 -12 37 -13 67 -1 65 -14 78 -89 89 -27 4 -55 14 -63 22
-9 8 -35 14 -64 14 -35 0 -51 4 -55 15 -5 11 -22 15 -65 15 -50 0 -59 3 -59
18 0 10 13 29 30 42 16 14 29 35 30 47 0 12 9 27 21 34 16 8 20 18 17 41 -3
20 1 37 11 47 21 21 17 151 -5 151 -8 0 -14 10 -14 23 0 12 -12 33 -26 46
l-25 24 -42 -47 c-44 -47 -73 -58 -83 -31 -8 19 -33 19 -40 0 -8 -20 -26 -19
-72 5 -42 22 -75 18 -70 -9 2 -9 13 -17 26 -19 21 -3 22 -8 22 -98 0 -75 -3
-96 -15 -100 -10 -4 -15 -20 -15 -45 0 -21 -4 -39 -10 -39 -5 0 -10 15 -10 34
0 18 -7 39 -15 46 -8 7 -15 28 -15 46 0 24 -5 34 -15 34 -11 0 -15 -12 -15
-50 0 -36 -6 -56 -20 -72 -11 -13 -27 -31 -36 -41 -8 -10 -13 -25 -10 -34 7
-18 -66 -96 -87 -91 -13 3 -67 -47 -67 -64 0 -4 -11 -6 -25 -2 -32 8 -32 -1 3
-36 53 -54 56 -59 42 -86 -8 -13 -19 -24 -25 -24 -17 0 -73 -67 -77 -93 -4
-32 -41 -34 -62 -3 -9 15 -12 26 -6 26 5 0 10 6 10 13 0 7 8 20 18 29 30 28
42 47 42 62 0 8 8 19 18 25 21 12 8 39 -31 61 -21 12 -28 12 -41 1 -13 -11
-14 -17 -5 -28 7 -8 19 -11 27 -8 30 11 31 -8 2 -36 -16 -17 -30 -39 -30 -49
0 -11 -9 -24 -21 -30 -11 -7 -19 -17 -17 -23 2 -7 -6 -22 -18 -33 l-22 -21
-42 38 c-34 31 -50 39 -81 39 -47 0 -50 15 -9 50 33 27 38 40 15 40 -21 0 -19
8 8 36 26 27 37 30 37 9 0 -8 -7 -15 -16 -15 -9 0 -14 -5 -12 -12 6 -18 28
-21 28 -4 0 9 7 16 15 16 11 0 15 9 13 29 -1 15 5 40 15 54 14 22 14 27 1 37
-8 8 -12 21 -9 31 4 11 -1 29 -12 42 -14 19 -17 37 -15 95 3 54 7 72 18 72 10
0 14 12 14 37 0 44 37 83 80 83 17 0 30 7 34 17 6 14 12 11 40 -20 28 -32 37
-36 64 -31 24 5 32 2 41 -15 9 -15 21 -21 46 -21 36 0 49 12 50 45 0 16 8 21
43 23 36 3 42 6 42 25 0 20 51 77 69 77 3 0 11 8 17 18 11 16 9 18 -17 14 -28
-4 -29 -3 -29 37 0 43 14 56 23 21 3 -12 14 -20 25 -20 12 0 24 -4 27 -10 3
-5 17 -10 31 -10 14 0 27 -7 30 -15 4 -10 20 -15 50 -15 37 0 44 3 44 20 0 17
-7 20 -40 20 -27 0 -43 5 -46 15 -4 8 -16 15 -29 15 -12 0 -28 7 -35 15 -7 9
-20 13 -28 10 -9 -3 -31 11 -58 40 -24 25 -53 45 -64 45 -38 0 -36 30 5 65 35
31 39 32 56 17 11 -9 19 -27 19 -39z m1160 37 c0 -5 -7 -10 -15 -10 -8 0 -15
5 -15 10 0 6 7 10 15 10 8 0 15 -4 15 -10z m-1660 -65 c7 -8 21 -15 32 -15 10
0 21 -7 24 -15 4 -10 20 -15 45 -15 26 0 42 -5 45 -15 4 -10 20 -15 50 -15 28
0 44 -4 44 -12 0 -7 4 -19 9 -27 7 -11 14 -10 39 8 32 23 57 27 67 11 3 -5 26
-10 51 -10 32 0 44 -4 44 -15 0 -16 -58 -30 -88 -21 -11 4 -23 2 -27 -4 -4 -6
8 -10 32 -10 27 0 45 -7 61 -24 33 -35 28 -46 -22 -46 -36 0 -49 5 -68 29
l-24 28 -24 -19 c-20 -16 -21 -21 -9 -29 7 -5 26 -9 40 -9 15 0 29 -7 33 -15
3 -8 16 -15 30 -15 26 0 43 -15 27 -24 -5 -4 -30 -7 -55 -8 -48 -2 -54 -6 -35
-25 6 -6 8 -16 5 -22 -11 -18 -34 -13 -51 11 -14 21 -14 24 5 38 24 18 17 30
-16 30 -16 0 -24 -7 -26 -22 -2 -13 -11 -24 -22 -26 -37 -8 -49 52 -16 81 29
25 26 71 -5 85 -14 7 -30 12 -35 12 -16 0 -11 -30 5 -36 8 -4 15 -17 15 -30 0
-25 -14 -32 -25 -14 -4 6 -32 10 -63 9 -31 -1 -75 4 -97 10 -22 7 -61 12 -87
11 -34 -1 -48 3 -48 12 0 8 -9 22 -21 31 -35 31 -19 42 57 39 38 -2 76 -9 84
-17 18 -15 130 -26 130 -12 0 18 -34 36 -67 37 -52 0 -102 30 -103 61 0 14 3
29 7 32 11 12 40 8 53 -8z m390 -30 c7 -8 23 -15 36 -15 13 0 24 -4 24 -10 0
-17 -71 -11 -96 9 -13 10 -20 21 -17 25 11 11 40 6 53 -9z m90 -53 c0 -13 -12
-22 -22 -16 -10 6 -1 24 13 24 5 0 9 -4 9 -8z m930 -7 c0 -9 -9 -15 -23 -15
-13 0 -37 -14 -54 -30 -30 -30 -34 -31 -110 -28 -66 3 -78 6 -81 21 -2 11 5
27 17 38 25 23 89 26 97 4 9 -21 57 -19 85 5 29 23 69 26 69 5z m-300 -55 c0
-5 9 -19 19 -29 15 -15 40 -22 104 -27 80 -6 84 -6 90 15 8 32 47 28 47 -4 0
-14 7 -28 15 -31 25 -10 17 -24 -13 -24 -15 0 -36 -6 -47 -14 -11 -7 -36 -17
-55 -21 -19 -4 -39 -14 -45 -22 -7 -10 -26 -13 -58 -11 -60 4 -62 22 -2 26 37
3 45 7 45 23 0 16 -7 19 -45 19 -25 0 -45 4 -45 9 0 5 -16 19 -35 31 -34 21
-35 22 -17 45 17 25 42 33 42 15z m500 -35 c0 -16 -35 -21 -44 -6 -8 12 4 21
26 21 10 0 18 -7 18 -15z m-560 -23 c0 -5 14 -22 30 -39 37 -38 22 -56 -21
-24 -15 11 -35 21 -44 21 -19 0 -19 9 2 32 17 19 33 24 33 10z m-907 -21 c4
-1 7 -7 7 -15 0 -14 -88 -36 -146 -36 -23 0 -33 -5 -37 -20 -5 -18 -11 -19
-69 -14 -34 4 -67 10 -72 15 -6 5 -20 9 -32 9 -27 0 -35 10 -28 36 9 34 41 39
209 33 88 -4 163 -7 168 -8z m724 -23 c19 -18 23 -32 23 -84 0 -42 -5 -65 -15
-74 -8 -7 -15 -28 -15 -46 0 -23 -5 -34 -14 -34 -17 0 -56 -51 -56 -74 0 -9
-4 -16 -10 -16 -5 0 -10 -7 -10 -15 0 -8 -5 -15 -11 -15 -7 0 -18 -8 -25 -17
-7 -10 -16 -14 -21 -9 -4 5 -2 11 5 13 6 3 12 16 12 29 0 13 5 24 10 24 6 0
10 20 10 45 0 31 5 47 15 51 12 5 15 25 15 95 0 63 4 90 14 96 7 4 18 18 25
31 15 27 19 27 48 0z m-141 -35 c17 -23 19 -164 2 -181 -7 -7 -11 -28 -10 -47
2 -25 -2 -37 -18 -45 -11 -6 -20 -18 -20 -26 0 -8 -11 -25 -24 -37 -55 -51
-77 -67 -89 -67 -6 1 -1 11 13 23 14 12 34 32 44 45 17 19 17 22 3 22 -10 0
-17 -7 -17 -15 0 -8 -7 -15 -15 -15 -8 0 -15 -4 -15 -10 0 -15 -38 -50 -55
-50 -25 0 -16 33 15 60 17 13 30 34 30 46 0 12 7 24 15 28 9 3 15 18 15 40 0
20 6 38 15 43 10 6 15 32 17 98 l3 90 30 6 c46 10 47 10 61 -8z m-208 -251 c2
-24 -1 -32 -12 -32 -9 0 -16 -7 -16 -15 0 -18 -26 -20 -36 -3 -4 6 0 16 9 23
10 7 17 24 17 39 0 41 34 31 38 -12z m-23 -93 c-4 -5 -15 -9 -26 -9 -11 0 -22
-7 -25 -15 -4 -8 -13 -15 -21 -15 -20 0 -7 18 30 40 30 19 53 18 42 -1z m-1
-64 c4 -11 -3 -19 -19 -25 -14 -5 -25 -14 -25 -18 0 -5 -18 -12 -41 -15 -22
-3 -48 -12 -58 -21 -24 -22 -41 -20 -41 4 0 17 7 20 39 20 25 0 41 5 45 15 3
8 15 15 27 15 12 0 23 8 26 20 6 24 38 27 47 5z m-589 -144 c8 -14 -95 -113
-111 -107 -21 8 -6 36 40 78 41 38 60 46 71 29z m413 -80 c2 -13 -1 -28 -7
-34 -6 -6 -11 -18 -11 -27 0 -8 -12 -28 -27 -45 -15 -16 -26 -37 -25 -47 2
-12 -3 -18 -17 -18 -14 0 -21 6 -21 20 0 11 -7 23 -15 26 -8 4 -15 12 -15 20
0 8 7 14 15 14 9 0 15 9 15 23 0 14 12 32 30 45 17 13 30 30 30 38 0 26 44 13
48 -15z m-438 -16 c0 -10 10 -15 34 -15 26 0 45 -9 72 -34 37 -33 37 -36 21
-54 -10 -11 -15 -26 -11 -35 4 -11 0 -19 -10 -23 -9 -3 -16 -13 -16 -21 0 -21
-41 -63 -61 -63 -9 0 -22 -7 -29 -15 -9 -11 -26 -15 -54 -13 l-41 3 3 45 c2
25 10 50 18 56 8 6 14 25 14 42 0 21 10 41 30 62 33 34 38 50 15 50 -8 0 -15
7 -15 15 0 8 7 15 15 15 8 0 15 -7 15 -15z m1672 -55 c39 -38 66 -71 62 -71
-5 -1 -36 -2 -69 -3 -58 -1 -61 0 -100 42 -39 40 -65 53 -65 32 0 -6 18 -27
40 -49 22 -21 40 -41 40 -45 0 -13 -98 -6 -110 9 -7 8 -28 15 -46 15 -39 0
-40 4 -18 49 11 22 21 30 31 27 16 -7 83 29 96 51 4 7 22 13 39 13 24 0 44
-14 100 -70z m-1784 21 c9 -5 26 -12 37 -16 19 -6 19 -7 3 -19 -12 -9 -18 -27
-18 -50 0 -23 -5 -39 -15 -42 -8 -4 -15 -17 -15 -30 0 -13 -4 -24 -10 -24 -5
0 -10 8 -10 19 0 10 -7 24 -15 31 -8 7 -15 28 -15 46 0 28 5 36 27 45 20 7 23
13 15 21 -24 24 -14 35 16 19z m582 -26 c0 -25 -24 -44 -38 -30 -4 4 -1 10 6
12 6 3 12 13 12 24 0 10 5 19 10 19 6 0 10 -11 10 -25z m-230 -35 c6 -12 19
-19 33 -17 17 1 23 -4 25 -23 2 -14 9 -28 15 -32 18 -11 -28 -48 -59 -48 -15
0 -35 -6 -43 -14 -9 -7 -37 -16 -63 -19 -38 -5 -48 -4 -48 8 0 7 5 17 10 20 6
3 10 15 10 26 0 11 7 22 15 25 8 3 17 16 21 27 19 60 64 85 84 47z"/>
<path d="M600 2090 c0 -11 5 -20 10 -20 6 0 10 9 10 20 0 11 -4 20 -10 20 -5
0 -10 -9 -10 -20z"/>
<path d="M950 1785 c-7 -8 -18 -15 -25 -15 -7 0 -15 -7 -19 -15 -8 -22 -36
-18 -36 5 0 23 -28 27 -36 5 -8 -19 35 -65 61 -65 11 0 29 13 40 30 13 19 29
30 43 30 17 0 23 5 20 17 -4 23 -32 28 -48 8z"/>
<path d="M743 1713 c-4 -10 -24 -36 -45 -58 -41 -42 -51 -90 -25 -122 71 -90
111 -97 176 -32 37 37 41 46 41 90 0 30 -5 51 -14 56 -8 4 -15 17 -17 28 -3
11 -14 21 -26 23 -12 2 -27 10 -33 18 -17 19 -49 18 -57 -3z m64 -79 c3 -8 -4
-29 -17 -46 -20 -28 -21 -32 -6 -40 21 -12 21 -44 0 -52 -17 -6 -26 -2 -56 23
-19 16 -25 61 -8 61 6 0 10 10 10 23 0 13 5 28 12 35 17 17 58 15 65 -4z"/>
<path d="M973 1646 c-28 -29 -28 -44 -4 -73 21 -25 71 -32 71 -9 0 7 14 16 31
20 38 7 34 28 -7 37 -28 7 -28 7 -6 14 12 4 22 11 22 16 0 5 -10 9 -22 9 -13
0 -32 3 -43 5 -13 4 -28 -3 -42 -19z"/>
<path d="M427 1643 c-11 -10 -8 -43 3 -43 6 0 10 11 10 25 0 26 -2 29 -13 18z"/>
<path d="M1492 1368 c2 -18 8 -33 13 -33 6 0 11 15 13 33 3 24 -1 32 -13 32
-12 0 -16 -8 -13 -32z"/>
<path d="M98 944 c-5 -40 0 -48 19 -33 17 15 17 55 -1 62 -10 4 -15 -4 -18
-29z"/>
<path d="M130 885 c0 -14 0 -27 0 -30 0 -18 16 -5 27 23 12 30 12 32 -7 32
-15 0 -20 -7 -20 -25z"/>
<path d="M360 840 c0 -5 7 -10 15 -10 8 0 15 5 15 10 0 6 -7 10 -15 10 -8 0
-15 -4 -15 -10z"/>
<path d="M300 810 c0 -5 7 -10 15 -10 8 0 15 5 15 10 0 6 -7 10 -15 10 -8 0
-15 -4 -15 -10z"/>
<path d="M170 795 c0 -21 36 -55 59 -55 11 0 31 -13 44 -30 23 -27 32 -30 81
-30 43 0 56 3 56 15 0 9 -9 15 -25 15 -14 0 -28 7 -31 15 -4 8 -17 15 -30 15
-12 0 -27 6 -31 13 -28 46 -123 78 -123 42z"/>
<path d="M1638 823 c-10 -3 -18 -11 -18 -19 0 -12 4 -13 23 -3 12 6 23 13 25
14 7 6 -14 11 -30 8z"/>
<path d="M1672 789 c2 -6 8 -10 13 -10 5 0 11 4 13 10 2 6 -4 11 -13 11 -9 0
-15 -5 -13 -11z"/>
<path d="M681 768 c2 -32 16 -85 19 -73 10 33 5 95 -7 95 -7 0 -12 -10 -12
-22z"/>
<path d="M777 762 c-37 -5 -29 -26 11 -30 23 -2 32 1 32 12 0 19 -8 23 -43 18z"/>
<path d="M853 734 c-7 -3 -9 -12 -6 -20 3 -8 -2 -21 -12 -28 -24 -17 -17 -61
10 -61 13 0 21 8 23 23 2 12 8 22 13 22 5 0 9 16 9 35 0 34 -8 40 -37 29z"/>
<path d="M1798 702 c-32 -4 -38 -22 -9 -22 11 0 26 -3 35 -6 10 -4 16 -1 16 9
0 20 -8 24 -42 19z"/>
<path d="M1917 703 c-4 -3 -7 -14 -7 -24 0 -9 -7 -19 -15 -23 -18 -6 -20 -26
-4 -26 16 0 59 48 59 66 0 14 -21 19 -33 7z"/>
<path d="M1870 551 c0 -11 5 -23 10 -26 6 -4 8 -15 5 -26 -4 -10 -2 -19 3 -19
9 0 22 46 22 76 0 8 -9 14 -20 14 -13 0 -20 -7 -20 -19z"/>
<path d="M1910 460 c0 -6 7 -13 15 -16 8 -4 15 -12 15 -20 0 -8 6 -14 14 -14
8 0 16 -7 20 -15 6 -17 26 -21 26 -5 0 12 -37 50 -49 50 -5 0 -11 7 -15 15 -6
17 -26 20 -26 5z"/>
<path d="M1315 850 c-9 -14 4 -52 16 -45 12 8 12 55 0 55 -6 0 -13 -5 -16 -10z"/>
<path d="M1290 755 c0 -19 5 -35 10 -35 6 0 10 16 10 35 0 19 -4 35 -10 35 -5
0 -10 -16 -10 -35z"/>
<path d="M2117 1639 c-23 -13 -21 -29 3 -29 11 0 23 -7 26 -15 7 -16 34 -21
34 -6 0 6 -10 21 -23 35 -17 18 -27 22 -40 15z"/>
<path d="M1843 1616 c-24 -25 -31 -56 -13 -56 6 0 15 -11 20 -25 5 -14 14 -25
19 -25 17 0 20 29 5 45 -20 20 -11 45 16 45 13 0 20 7 20 20 0 28 -39 26 -67
-4z"/>
<path d="M1400 1570 c0 -19 5 -21 48 -18 34 2 47 7 47 18 0 11 -13 16 -47 18
-43 3 -48 1 -48 -18z"/>
<path d="M1884 1465 c-3 -8 -3 -19 1 -25 11 -18 25 -11 25 15 0 27 -17 34 -26
10z"/>
</g>
</svg>
