<?xml version="1.0" standalone="no"?>
<!DOCTYPE svg PUBLIC "-//W3C//DTD SVG 20010904//EN"
 "http://www.w3.org/TR/2001/REC-SVG-20010904/DTD/svg10.dtd">
<svg version="1.0" xmlns="http://www.w3.org/2000/svg"
 width="900.000000pt" height="900.000000pt" viewBox="0 0 900.000000 900.000000"
 preserveAspectRatio="xMidYMid meet">
<metadata>
Created by potrace 1.10, written by Peter Selinger 2001-2011
</metadata>
<g transform="translate(0.000000,900.000000) scale(0.100000,-0.100000)"
fill="#008b8b" stroke="none">
<path d="M625 6408 c-3 -13 -4 -266 -3 -563 l3 -540 775 0 775 0 2 545 c2 333
-1 551 -7 560 -8 13 -107 15 -774 18 l-766 2 -5 -22z"/>
<path d="M3715 6421 c-4 -7 -8 -850 -5 -1108 0 -10 159 -13 759 -13 418 0 766
3 775 6 14 6 16 63 16 549 0 512 -1 543 -18 558 -17 16 -85 17 -770 17 -461 0
-753 -4 -757 -9z"/>
<path d="M6796 6412 c-15 -17 -16 -68 -16 -560 1 -478 2 -541 16 -546 9 -3
357 -6 775 -6 600 0 759 3 759 13 3 258 -1 1101 -5 1108 -4 5 -297 9 -759 9
-719 0 -754 -1 -770 -18z"/>
<path d="M625 5048 c-3 -7 -4 -263 -3 -568 l3 -555 1850 -2 c1155 -2 1856 1
1865 7 13 8 15 81 15 560 0 479 -2 552 -15 560 -9 6 -716 10 -1863 10 -1469 0
-1849 -3 -1852 -12z"/>
<path d="M4615 5051 c-3 -5 -5 -258 -5 -561 0 -303 2 -556 5 -561 8 -12 3702
-12 3710 0 7 13 7 1109 0 1122 -8 12 -3702 12 -3710 0z"/>
<path d="M627 3673 c-9 -8 -9 -1086 -1 -1107 6 -15 357 -16 3849 -16 2396 0
3846 4 3850 9 4 7 8 850 5 1109 0 9 -776 12 -3848 12 -2117 0 -3852 -3 -3855
-7z"/>
</g>
</svg>
