<?xml version="1.0" standalone="no"?>
<!DOCTYPE svg PUBLIC "-//W3C//DTD SVG 20010904//EN"
 "http://www.w3.org/TR/2001/REC-SVG-20010904/DTD/svg10.dtd">
<svg version="1.0" xmlns="http://www.w3.org/2000/svg"
 width="200.000000pt" height="200.000000pt" viewBox="0 0 200.000000 200.000000"
 preserveAspectRatio="xMidYMid meet">
<metadata>
Created by potrace 1.10, written by Peter Selinger 2001-2011
</metadata>
<g transform="translate(0.000000,200.000000) scale(0.100000,-0.100000)"
fill="#ffd33c" stroke="none">
<path d="M988 1597 c-32 -18 -58 -37 -58 -44 0 -18 -12 -22 -112 -39 -51 -8
-102 -17 -113 -19 -29 -7 -61 -37 -70 -65 -7 -23 -6 -23 29 8 36 31 46 35 116
46 67 11 144 36 164 54 74 66 153 82 208 40 49 -37 59 -41 52 -25 -3 8 -23 29
-44 46 -51 41 -96 40 -172 -2z"/>
<path d="M1328 1562 c-54 -8 -98 -19 -98 -25 0 -6 20 -7 53 -3 165 22 165 22
203 -15 l34 -33 0 -115 c0 -63 2 -112 4 -110 3 3 10 54 16 113 l11 109 -48 49
c-26 26 -54 47 -63 47 -8 -1 -59 -8 -112 -17z"/>
<path d="M1167 1337 c-17 -95 -34 -270 -40 -438 -2 -53 -7 -101 -11 -108 -4
-7 -37 -11 -83 -11 -73 0 -77 1 -104 31 -35 39 -41 79 -43 258 -1 126 4 199
20 276 4 21 3 27 -5 20 -5 -6 -17 -55 -26 -110 -13 -78 -15 -133 -10 -252 l7
-153 35 -44 34 -44 77 -5 c62 -3 82 -1 102 13 24 16 25 22 27 131 3 148 21
346 39 432 8 38 11 75 6 82 -4 9 -14 -22 -25 -78z"/>
<path d="M1230 1402 c0 -5 7 -56 15 -114 14 -102 14 -112 -10 -280 -14 -95
-28 -180 -31 -190 -8 -27 13 -31 115 -18 85 11 101 17 133 44 35 30 37 34 44
114 4 51 3 82 -3 82 -5 0 -11 -22 -12 -49 -2 -80 -22 -123 -65 -145 -73 -36
-216 -38 -187 -2 5 6 12 47 16 91 4 44 13 115 21 158 10 58 11 97 4 150 -6 40
-13 93 -16 120 -4 26 -11 47 -15 47 -5 0 -9 -4 -9 -8z"/>
<path d="M540 1385 c-25 -7 -70 -20 -101 -29 -55 -15 -57 -17 -124 -118 l-68
-103 7 -168 c6 -155 9 -175 36 -245 16 -43 30 -82 30 -89 0 -15 91 -34 130
-27 19 4 37 18 49 38 l19 31 -32 126 c-18 70 -36 134 -39 144 -4 10 1 28 12
43 19 28 61 107 61 117 0 19 -20 -1 -36 -36 -10 -23 -25 -49 -34 -57 -20 -20
-18 -119 3 -164 14 -29 37 -138 37 -175 0 -23 -32 -43 -68 -43 -63 0 -84 18
-113 97 -23 63 -27 90 -31 238 l-5 166 56 91 c43 70 64 94 91 106 34 15 118
39 173 49 15 3 30 9 33 14 7 13 -33 10 -86 -6z"/>
<path d="M840 1364 c-6 -14 -10 -28 -10 -31 0 -5 -17 -45 -51 -121 -16 -37
-19 -66 -19 -221 0 -175 0 -178 24 -200 39 -36 39 -60 3 -94 -30 -28 -35 -29
-97 -23 -56 4 -68 9 -87 33 -13 16 -23 42 -23 60 0 18 -4 52 -9 75 -25 111
-29 158 -20 193 15 54 5 66 -13 15 -14 -41 -13 -56 4 -175 30 -195 48 -222
154 -226 56 -2 64 0 102 31 50 40 53 63 12 107 l-30 32 0 175 c0 155 2 180 21
223 44 100 68 173 59 173 -6 0 -15 -12 -20 -26z"/>
<path d="M1545 1230 c10 -11 26 -22 36 -25 11 -4 19 -11 19 -16 0 -6 27 -69
60 -141 62 -135 70 -173 51 -247 -6 -20 -15 -56 -21 -81 -9 -35 -30 -65 -98
-138 l-87 -93 -125 -24 c-69 -14 -154 -31 -190 -40 -140 -33 -218 -31 -259 4
-20 18 -61 114 -61 144 0 32 90 86 144 87 11 0 33 4 50 9 94 29 148 41 211 47
39 3 84 9 100 14 17 5 47 11 68 15 24 4 51 20 77 44 l40 38 0 101 c0 55 -4
103 -9 106 -4 3 -8 -36 -8 -87 0 -51 -3 -103 -7 -115 -14 -44 -86 -73 -244
-97 -81 -12 -201 -35 -267 -51 -110 -26 -123 -31 -153 -66 -32 -36 -33 -39
-22 -74 7 -21 23 -61 36 -89 l24 -52 67 -12 c64 -12 78 -11 228 18 88 17 193
36 233 43 l73 12 97 105 97 104 22 111 22 111 -71 161 c-64 145 -74 163 -105
178 -44 21 -50 20 -28 -4z"/>
</g>
</svg>
