<?xml version="1.0" standalone="no"?>
<!DOCTYPE svg PUBLIC "-//W3C//DTD SVG 20010904//EN"
 "http://www.w3.org/TR/2001/REC-SVG-20010904/DTD/svg10.dtd">
<svg version="1.0" xmlns="http://www.w3.org/2000/svg"
 width="200.000000pt" height="200.000000pt" viewBox="0 0 200.000000 200.000000"
 preserveAspectRatio="xMidYMid meet">
<metadata>
Created by potrace 1.10, written by Peter Selinger 2001-2011
</metadata>
<g transform="translate(0.000000,200.000000) scale(0.100000,-0.100000)"
fill="#56da24" stroke="none">
<path d="M840 1665 c-226 -46 -416 -183 -512 -371 -59 -115 -81 -203 -81 -324
0 -164 53 -309 157 -429 94 -109 222 -189 351 -220 67 -17 198 -15 269 4 224
59 396 274 396 495 0 160 -96 331 -222 396 -129 66 -312 40 -405 -58 -106
-111 -109 -294 -7 -390 77 -72 196 -62 251 21 27 39 29 71 8 110 -21 42 -42
46 -60 11 -34 -65 -95 -38 -95 42 0 30 7 46 29 69 26 25 37 29 88 29 197 0
269 -254 116 -406 -62 -63 -106 -79 -213 -79 -84 0 -102 3 -157 29 -175 80
-269 293 -218 491 63 240 292 392 560 372 96 -8 153 -25 244 -72 126 -66 231
-189 291 -337 72 -182 64 -397 -22 -575 -40 -84 -30 -102 17 -29 94 147 128
264 128 441 0 183 -40 318 -138 464 -166 248 -480 376 -775 316z m350 -41 c61
-18 174 -71 223 -105 57 -39 162 -153 198 -214 77 -131 109 -255 108 -409 0
-93 -17 -98 -18 -6 -1 57 -19 122 -32 115 -5 -4 -9 -1 -9 6 0 22 -54 134 -91
189 -58 88 -157 174 -252 219 -98 47 -161 61 -270 61 -246 -1 -423 -122 -518
-355 -7 -16 -11 -36 -10 -44 1 -7 -2 -10 -8 -6 -6 3 -11 0 -11 -7 0 -7 -3 -37
-6 -66 -14 -119 39 -257 135 -352 155 -154 391 -158 525 -9 46 52 86 138 86
188 0 42 -63 163 -104 199 -68 59 -170 65 -226 12 -17 -16 -30 -38 -30 -50 0
-11 -4 -18 -10 -15 -6 4 -10 -8 -10 -30 0 -27 8 -44 29 -66 35 -34 59 -36 95
-8 15 12 29 20 31 17 2 -2 6 -22 9 -45 6 -49 -14 -75 -69 -93 -70 -23 -147 7
-192 74 -22 34 -26 50 -24 105 4 162 89 266 238 290 159 25 293 -47 363 -195
39 -80 52 -158 45 -269 -7 -112 -37 -176 -125 -266 -221 -225 -569 -209 -816
38 -80 79 -160 218 -148 256 4 11 2 17 -4 14 -16 -11 -15 241 2 324 15 71 65
187 103 239 22 29 109 118 142 144 73 57 225 121 325 137 76 12 263 3 326 -17z"/>
</g>
</svg>
